<svg width="37" height="36" viewBox="0 0 37 36" fill="none" xmlns="http://www.w3.org/2000/svg">
<path d="M24.7498 13.4095V13.2915H24.8888L24.8659 13.4288L24.7498 13.4095ZM25.7701 14.0862L25.9026 13.2915H31.1665V14.3748H25.722L25.7701 14.0862ZM24.2498 12.2915H23.9581L25.3129 4.16306L26.3807 4.34176L25.0555 12.2915H24.2498ZM32.167 14.4095L32.1681 13.3184C32.6917 13.3746 33.2034 13.5184 33.6814 13.7449C34.3107 14.0431 34.866 14.4771 35.3073 15.0157C35.7486 15.5543 36.065 16.1841 36.2336 16.8597C36.3618 17.3733 36.4033 17.9032 36.3561 18.427L35.287 18.2132C35.308 17.8465 35.2728 17.4783 35.1837 17.1214C35.0537 16.6011 34.8099 16.1161 34.4698 15.7014C34.1298 15.2867 33.702 14.9526 33.2172 14.7232C32.8842 14.5656 32.53 14.4601 32.167 14.4095ZM35.1254 19.2007L36.1865 19.4129L33.8826 30.9323L32.8215 30.7201L35.1254 19.2007ZM32.5915 31.6939L33.6604 31.9077C33.3872 32.7797 32.8647 33.5572 32.1524 34.1411C31.4401 34.725 30.5752 35.0848 29.6665 35.1817V34.0905C30.3241 33.9994 30.9476 33.7287 31.4661 33.3039C31.9847 32.879 32.3728 32.3208 32.5915 31.6939ZM5.99984 34.1248H28.6665V35.2082H5.99984V34.1248ZM4.99984 35.1815C4.55313 35.1338 4.11467 35.0223 3.69804 34.8498C3.12679 34.6132 2.60775 34.2663 2.17054 33.8291C1.73333 33.3919 1.38652 32.8729 1.1499 32.3016C0.977327 31.885 0.865836 31.4465 0.818128 30.9998H1.90947C2.01762 31.7765 2.37571 32.5022 2.93657 33.0631C3.49743 33.624 4.22315 33.9821 4.99984 34.0902V35.1815ZM1.87484 15.3748V29.9998H0.791504V14.3332H0.83317V14.8748V15.3748H1.33317H1.87484ZM1.83317 14.3332H1.87484V14.3748H1.83317V14.3332ZM2.87484 14.3748V13.8332V13.3332H2.37484H1.83317V13.2915H9.02067V14.3748H2.87484ZM10.0207 14.3482V13.2568C10.443 13.198 10.8529 13.0649 11.2311 12.8625C11.6093 12.6601 11.9473 12.3928 12.2304 12.0741L13.1385 12.6798C12.7516 13.1443 12.2779 13.5312 11.7421 13.8179C11.2064 14.1045 10.6217 14.284 10.0207 14.3482ZM13.7153 11.8625L12.814 11.2613L17.5005 4.23349L18.4001 4.83254L13.7153 11.8625ZM23.9269 2.37606V2.37534V2.37484H23.9311H24.3576H24.3748L23.9269 2.37606ZM24.5229 2.01694C24.4745 1.99458 24.4251 1.97479 24.3748 1.95762V0.839775C24.5826 0.88017 24.7852 0.945652 24.9783 1.03521L25.1887 0.581635L24.9783 1.03521C25.3241 1.19563 25.6309 1.42944 25.8772 1.72039C26.1235 2.01134 26.3035 2.35246 26.4047 2.72001C26.4611 2.92519 26.4923 3.13586 26.4978 3.34736L25.3971 3.16297C25.3883 3.1102 25.3768 3.0578 25.3624 3.006L25.0218 3.1001L25.3624 3.006C25.3028 2.79003 25.1968 2.58968 25.0518 2.41887C24.9068 2.24806 24.7263 2.1109 24.5229 2.01694ZM18.9732 4.01241L18.0696 3.41001C18.6516 2.66268 19.3848 2.04384 20.2232 1.59514C21.0618 1.14633 21.9836 0.879559 22.9285 0.80989L22.9274 1.89673C22.1613 1.96402 21.4148 2.18562 20.7337 2.55009C20.0526 2.91451 19.4542 3.41248 18.9732 4.01241Z" fill="#555555" stroke="#219C10"/>
<path d="M9.6665 13.833V34.6663" stroke="#F41515"/>
</svg>
