<svg width="39" height="38" viewBox="0 0 39 38" fill="none" xmlns="http://www.w3.org/2000/svg">
<path d="M25.2502 23.1668L23.7085 23.4231C23.6713 23.1993 23.6833 22.97 23.7436 22.7513C23.804 22.5326 23.9112 22.3296 24.0579 22.1565C24.2046 21.9834 24.3873 21.8444 24.5932 21.749C24.7991 21.6537 25.0233 21.6043 25.2502 21.6043V23.1668ZM2.3335 23.1668V24.7293C1.9191 24.7293 1.52167 24.5647 1.22864 24.2717C0.935616 23.9787 0.770996 23.5812 0.770996 23.1668H2.3335ZM6.50016 0.770996H30.1668V3.896H6.50016V0.770996ZM32.6668 24.7293H25.2502V21.6043H32.6668V24.7293ZM26.7918 22.9106L28.471 32.9835L25.3877 33.4981L23.7085 23.4231L26.7918 22.9106ZM24.8752 37.2293H24.4293V34.1043H24.8731L24.8752 37.2293ZM17.9272 33.7502L12.6877 25.8897L15.2877 24.1564L20.5272 32.0168L17.9272 33.7502ZM10.521 24.7293H2.3335V21.6043H10.521V24.7293ZM0.770996 23.1668V6.50016H3.896V23.1668H0.770996ZM35.7856 5.37516L38.2856 17.8752L35.2231 18.4897L32.7231 5.98975L35.7856 5.37516ZM12.6877 25.8897C12.45 25.5329 12.1278 25.2424 11.7498 25.0399C11.3719 24.8375 10.9498 24.7315 10.521 24.7314V21.6064C12.4377 21.6064 14.2252 22.5627 15.2877 24.1564L12.6877 25.8897ZM28.471 32.9835C28.5581 33.5058 28.5305 34.0429 28.3899 34.5534C28.2493 35.0639 27.9992 35.5377 27.657 35.9418C27.3148 36.3459 26.8887 36.6706 26.4083 36.8933C25.9278 37.116 25.4047 37.2293 24.8752 37.2293V34.1064C24.9507 34.1062 25.0252 34.0896 25.0937 34.0578C25.1622 34.0259 25.2229 33.9795 25.2716 33.9218C25.3204 33.8642 25.356 33.7966 25.376 33.7238C25.3961 33.651 25.4 33.5726 25.3877 33.4981L28.471 32.9835ZM32.6668 21.6064C33.0521 21.6065 33.4327 21.5211 33.781 21.3563C34.1293 21.1915 34.4367 20.9515 34.681 20.6536C34.9253 20.3556 35.1005 20.0072 35.1939 19.6334C35.2873 19.2596 35.2965 18.8697 35.221 18.4918L38.2856 17.8772C38.4517 18.7085 38.4313 19.5682 38.2259 20.3906C38.0205 21.213 37.6352 21.9796 37.0977 22.635C36.5602 23.2905 35.884 23.8185 35.1178 24.181C34.3516 24.5435 33.5145 24.7315 32.6668 24.7314V21.6064ZM30.1668 0.770996C31.4912 0.770736 32.7748 1.23141 33.7992 2.07083C34.8236 2.91024 35.5255 4.07656 35.7856 5.37516L32.7231 5.98975C32.6054 5.39853 32.2863 4.86853 31.8201 4.48633C31.354 4.10413 30.7696 3.89549 30.1668 3.896V0.770996ZM24.4293 37.2293C23.1432 37.2292 21.877 36.9137 20.7431 36.3068C19.6092 35.6999 18.6427 34.8224 17.9293 33.7522L20.5272 32.0189C20.9555 32.6613 21.5357 33.188 22.2164 33.5521C22.8972 33.9163 23.6573 34.1046 24.4293 34.1043V37.2293ZM6.50016 3.896C5.06266 3.896 3.896 5.06266 3.896 6.50016H0.770996C0.770996 4.98069 1.3746 3.52346 2.44903 2.44903C3.52346 1.3746 4.98069 0.770996 6.50016 0.770996V3.896Z" fill="#D60000"/>
<path d="M10.667 23.1668V2.3335" stroke="#555555" stroke-width="1.5"/>
</svg>
