<svg width="39" height="39" viewBox="0 0 39 39" fill="none" xmlns="http://www.w3.org/2000/svg">
<path d="M38.637 0.360542C38.8089 0.53273 38.9264 0.751634 38.975 0.99006C39.0236 1.22849 39.001 1.47593 38.9102 1.70165L24.4603 37.8295C24.333 38.1477 24.1203 38.4246 23.8458 38.6297C23.5713 38.8347 23.2455 38.9601 22.9043 38.9919C22.5631 39.0238 22.2198 38.9609 21.912 38.8101C21.6043 38.6594 21.3441 38.4266 21.1601 38.1375L13.2685 25.7323L0.86479 17.8396C0.575043 17.6558 0.341704 17.3955 0.190522 17.0874C0.0393394 16.7794 -0.0238097 16.4355 0.0080429 16.0938C0.0398955 15.7521 0.165511 15.4259 0.37103 15.1511C0.576548 14.8763 0.853979 14.6636 1.17271 14.5365L37.2961 0.0898372C37.5218 -0.00102951 37.7692 -0.0235793 38.0076 0.0249891C38.246 0.0735574 38.4649 0.191103 38.637 0.363025V0.360542ZM15.7467 25.0071L22.6029 35.7806L34.3559 6.39552L15.7467 25.0071ZM32.6003 4.63966L3.21888 16.3942L13.9936 23.2487L32.6003 4.63966Z" fill="#555555"/>
</svg>
