<svg width="40" height="40" viewBox="0 0 40 40" fill="none" xmlns="http://www.w3.org/2000/svg">
<path d="M1 19.5556C1 12.2231 1 8.55583 3.2268 6.27889C5.4536 4.00194 9.0351 4 16.2 4H23.8C30.9649 4 34.5483 4 36.7732 6.27889C38.9981 8.55778 39 12.2231 39 19.5556V23.4444C39 30.7769 39 34.4442 36.7732 36.7211C34.5464 38.9981 30.9649 39 23.8 39H16.2C9.0351 39 5.4517 39 3.2268 36.7211C1.0019 34.4422 1 30.7769 1 23.4444V19.5556Z" stroke="black" stroke-width="1.5"/>
<path d="M10.5263 4V1M29.4737 4V1M2 14H38" stroke="black" stroke-width="1.5" stroke-linecap="round"/>
<path d="M31 29.1667C31 29.6529 30.8068 30.1192 30.463 30.463C30.1192 30.8068 29.6529 31 29.1667 31C28.6804 31 28.2141 30.8068 27.8703 30.463C27.5265 30.1192 27.3333 29.6529 27.3333 29.1667C27.3333 28.6804 27.5265 28.2141 27.8703 27.8703C28.2141 27.5265 28.6804 27.3333 29.1667 27.3333C29.6529 27.3333 30.1192 27.5265 30.463 27.8703C30.8068 28.2141 31 28.6804 31 29.1667ZM31 21.8333C31 22.3196 30.8068 22.7859 30.463 23.1297C30.1192 23.4735 29.6529 23.6667 29.1667 23.6667C28.6804 23.6667 28.2141 23.4735 27.8703 23.1297C27.5265 22.7859 27.3333 22.3196 27.3333 21.8333C27.3333 21.3471 27.5265 20.8808 27.8703 20.537C28.2141 20.1932 28.6804 20 29.1667 20C29.6529 20 30.1192 20.1932 30.463 20.537C30.8068 20.8808 31 21.3471 31 21.8333ZM21.8333 29.1667C21.8333 29.6529 21.6402 30.1192 21.2964 30.463C20.9525 30.8068 20.4862 31 20 31C19.5138 31 19.0475 30.8068 18.7036 30.463C18.3598 30.1192 18.1667 29.6529 18.1667 29.1667C18.1667 28.6804 18.3598 28.2141 18.7036 27.8703C19.0475 27.5265 19.5138 27.3333 20 27.3333C20.4862 27.3333 20.9525 27.5265 21.2964 27.8703C21.6402 28.2141 21.8333 28.6804 21.8333 29.1667ZM21.8333 21.8333C21.8333 22.3196 21.6402 22.7859 21.2964 23.1297C20.9525 23.4735 20.4862 23.6667 20 23.6667C19.5138 23.6667 19.0475 23.4735 18.7036 23.1297C18.3598 22.7859 18.1667 22.3196 18.1667 21.8333C18.1667 21.3471 18.3598 20.8808 18.7036 20.537C19.0475 20.1932 19.5138 20 20 20C20.4862 20 20.9525 20.1932 21.2964 20.537C21.6402 20.8808 21.8333 21.3471 21.8333 21.8333ZM12.6667 29.1667C12.6667 29.6529 12.4735 30.1192 12.1297 30.463C11.7859 30.8068 11.3196 31 10.8333 31C10.3471 31 9.88079 30.8068 9.53697 30.463C9.19315 30.1192 9 29.6529 9 29.1667C9 28.6804 9.19315 28.2141 9.53697 27.8703C9.88079 27.5265 10.3471 27.3333 10.8333 27.3333C11.3196 27.3333 11.7859 27.5265 12.1297 27.8703C12.4735 28.2141 12.6667 28.6804 12.6667 29.1667ZM12.6667 21.8333C12.6667 22.3196 12.4735 22.7859 12.1297 23.1297C11.7859 23.4735 11.3196 23.6667 10.8333 23.6667C10.3471 23.6667 9.88079 23.4735 9.53697 23.1297C9.19315 22.7859 9 22.3196 9 21.8333C9 21.3471 9.19315 20.8808 9.53697 20.537C9.88079 20.1932 10.3471 20 10.8333 20C11.3196 20 11.7859 20.1932 12.1297 20.537C12.4735 20.8808 12.6667 21.3471 12.6667 21.8333Z" fill="#555555"/>
</svg>
