<svg width="13" height="8" viewBox="0 0 13 8" fill="none" xmlns="http://www.w3.org/2000/svg">
<path d="M0.815712 7.1891C0.915142 7.2877 1.03323 7.3659 1.16325 7.4192C1.29326 7.4725 1.43263 7.5 1.57338 7.5C1.71414 7.5 1.85351 7.4725 1.98352 7.4192C2.11353 7.3659 2.23163 7.2877 2.33105 7.1891L6.5009 3.0645L10.6708 7.1891C10.8718 7.3879 11.1443 7.4996 11.4285 7.4996C11.7127 7.4996 11.9852 7.3879 12.1862 7.1891C12.3871 6.9904 12.5 6.7208 12.5 6.4397C12.5 6.1586 12.3871 5.889 12.1862 5.6902L7.2532 0.81088C7.1538 0.71233 7.0357 0.63415 6.9057 0.5808C6.7757 0.52746 6.6363 0.5 6.4956 0.5C6.3548 0.5 6.2154 0.52746 6.0854 0.5808C5.9554 0.63415 5.8373 0.71233 5.7379 0.81088L0.804962 5.6902C0.396572 6.0942 0.396572 6.7745 0.815712 7.1891Z" fill="#181818"/>
</svg>
