<?xml version="1.0" encoding="UTF-8" standalone="no"?>
<!-- Created with Inkscape (http://www.inkscape.org/) -->

<svg
   width="222.3607mm"
   height="129.65788mm"
   viewBox="0 0 222.36071 129.65789"
   version="1.1"
   id="svg1"
   inkscape:version="1.3.1 (9b9bdc1480, 2023-11-25, custom)"
   sodipodi:docname="baobabsamagokh.svg"
   xmlns:inkscape="http://www.inkscape.org/namespaces/inkscape"
   xmlns:sodipodi="http://sodipodi.sourceforge.net/DTD/sodipodi-0.dtd"
   xmlns="http://www.w3.org/2000/svg"
   xmlns:svg="http://www.w3.org/2000/svg">
  <sodipodi:namedview
     id="namedview1"
     pagecolor="#ffffff"
     bordercolor="#000000"
     borderopacity="0.25"
     inkscape:showpageshadow="2"
     inkscape:pageopacity="0.0"
     inkscape:pagecheckerboard="0"
     inkscape:deskcolor="#d1d1d1"
     inkscape:document-units="mm"
     inkscape:zoom="1.0217435"
     inkscape:cx="300.95616"
     inkscape:cy="196.2332"
     inkscape:window-width="1850"
     inkscape:window-height="1011"
     inkscape:window-x="0"
     inkscape:window-y="0"
     inkscape:window-maximized="1"
     inkscape:current-layer="layer1">
    <inkscape:page
       x="0"
       y="0"
       width="222.36072"
       height="129.6579"
       id="page1"
       margin="0 0 0 0"
       bleed="0" />
  </sodipodi:namedview>
  <defs
     id="defs1">
    <clipPath
       clipPathUnits="userSpaceOnUse"
       id="clipPath12">
      <path
         d="M 0,595.276 H 841.89 V 0 H 0 Z"
         transform="matrix(1.3333333,0,0,-1.3333333,0,793.70133)"
         id="path12" />
    </clipPath>
    <clipPath
       clipPathUnits="userSpaceOnUse"
       id="clipPath2">
      <path
         d="M 210.323,363.204 H 842.74 V -1.6972 H 210.323 Z"
         transform="translate(-652.64812,-126.8543)"
         id="path2" />
    </clipPath>
    <clipPath
       clipPathUnits="userSpaceOnUse"
       id="clipPath3">
      <path
         d="M 210.323,363.204 H 842.74 V -1.6972 H 210.323 Z"
         transform="translate(-563.82481,-209.03531)"
         id="path3" />
    </clipPath>
    <clipPath
       clipPathUnits="userSpaceOnUse"
       id="clipPath4">
      <path
         d="M 210.323,363.204 H 842.74 V -1.6972 H 210.323 Z"
         transform="translate(-818.24905,-354.24611)"
         id="path4" />
    </clipPath>
    <clipPath
       clipPathUnits="userSpaceOnUse"
       id="clipPath5">
      <path
         d="M 210.323,363.204 H 842.74 V -1.6972 H 210.323 Z"
         transform="translate(-342.53581,-115.9918)"
         id="path5" />
    </clipPath>
    <clipPath
       clipPathUnits="userSpaceOnUse"
       id="clipPath6">
      <path
         d="M 210.323,363.204 H 842.74 V -1.6972 H 210.323 Z"
         transform="translate(-696.96382,-39.677801)"
         id="path6" />
    </clipPath>
  </defs>
  <g
     inkscape:label="Calque 1"
     inkscape:groupmode="layer"
     id="layer1"
     transform="translate(43.644132,-89.190409)">
    <g
       opacity="0.100006"
       id="g11"
       clip-path="url(#clipPath12)"
       transform="matrix(0.26458333,0,0,0.26458333,-117.35048,8.3866053)">
      <path
         d="m 0,0 c 3.961,-3.267 7.891,-6.454 11.853,-9.721 1.311,-0.757 2.652,-1.593 3.994,-2.429 1.484,0.41 2.936,0.9 4.42,1.311 3.108,1.61 6.217,3.22 9.247,4.799 1.594,1.279 3.156,2.636 4.718,3.993 3.378,5.288 7.227,10.308 10.02,15.911 2.082,4.404 4.433,3.788 7.448,1.974 4.184,-2.446 8.193,-5.144 12.28,-7.811 2.352,-0.615 4.736,-1.308 7.167,-1.892 2.872,0.6 5.713,1.28 8.554,1.958 3.614,0.348 7.228,0.696 10.842,1.044 0.9,0.268 1.878,0.568 2.809,0.758 l 4.182,1.674 c 1.278,0.694 2.558,1.389 3.835,2.084 1.735,4.813 3.519,9.738 5.253,14.552 -0.553,0.236 -1.136,0.552 -1.798,0.836 -6.977,-2.242 -13.983,-4.405 -21.038,-6.68 -5.856,3.424 -14.458,0.898 -18.325,8.505 -0.569,1.878 -1.137,3.756 -1.737,5.712 -0.143,1.5 0.031,3.126 -0.458,4.578 -2.827,8.206 -1.376,13.73 4.92,19.728 1.278,1.153 2.178,2.795 3.251,4.231 3.629,1.452 7.29,2.826 10.952,4.2 3.346,0.789 6.739,1.69 10.165,2.511 8.805,5.904 13.746,-2.097 20.012,-5.631 1.973,-1.499 3.947,-2.998 5.919,-4.497 5.226,-5.05 10.908,-7.811 18.072,-4.211 3.045,1.768 6.092,3.536 9.059,5.273 2.13,4.056 4.26,8.113 6.389,12.169 0.173,4.83 0.535,9.644 0.472,14.378 -0.001,2.289 -1.833,5.034 -0.995,6.834 5.015,12.169 10.223,24.323 16.044,36.082 2.477,5.019 6.644,9.25 10.036,13.811 -0.001,1.831 -0.001,3.662 0.061,7.623 -5.948,-5.035 -10.383,-8.824 -14.927,-12.565 -1.216,3.725 -2.037,6.234 -2.859,8.743 -1.467,-2.967 -1.609,-5.588 -1.671,-8.175 -0.47,-19.871 -9.969,-36.397 -19.83,-52.702 -3.047,-1.769 -6.013,-3.505 -9.059,-5.273 -6.961,5.728 -14,11.424 -21.009,17.042 -1.279,1.136 -2.432,2.413 -3.82,3.14 -7.183,3.991 -10.055,10.257 -7.721,17.691 2.177,6.913 5.995,13.385 9.466,19.809 2.714,5.114 8.774,9.186 4.985,16.367 -2.036,3.488 -4.073,6.975 -6.221,10.51 -1.355,-4.387 -2.792,-8.807 -4.148,-13.195 -4.591,-9.802 -4.591,-9.802 -13.667,-6.11 -2.509,1.01 -4.956,1.862 -7.434,2.792 -1.135,0.095 -2.225,0.3 -3.361,0.395 -4.466,-1.88 -9.012,-3.79 -13.478,-5.669 -8.429,5.964 -16.746,2.27 -26.831,1.164 2.857,-1.878 4.058,-2.588 5.178,-3.33 6.029,-0.425 12.057,-0.85 18.008,-1.306 0.41,0.347 0.773,0.583 1.31,0.615 2.193,-0.22 4.466,-0.41 6.707,-0.52 2.004,0.253 4.041,0.428 6.124,0.712 1.468,0.221 3.014,0.474 4.513,0.616 l 5.635,-1.041 c 4.688,-1.42 7.45,-2.145 3.774,-8.743 -5.87,-10.496 -11.045,-21.813 -8.99,-34.723 -0.411,-1.72 -0.899,-3.472 -1.42,-5.145 -5.855,-2.527 -11.742,-4.974 -17.628,-7.421 -2.604,-1.5 -5.24,-2.921 -7.843,-4.42 C 38.813,72.748 26.33,62.535 13.706,52.448 9.493,49.022 4.821,46.054 0.403,42.913 -2.217,40.308 -4.758,37.735 -7.297,35.162 -11.526,24.224 -7.831,14.534 -2.827,5.002 -1.942,3.251 -0.932,1.641 0,0"
         style="fill:#3c3e40;fill-opacity:1;fill-rule:nonzero;stroke:none"
         transform="matrix(1.3333333,0,0,-1.3333333,870.19747,624.56227)"
         clip-path="url(#clipPath2)"
         id="path7" />
      <path
         d="m 0,0 c 1.136,2.652 2.193,5.271 3.329,7.923 3.946,0.664 8.002,1.28 11.979,1.865 1.752,-0.489 3.503,-0.978 5.256,-1.467 3.583,-2.32 7.165,-4.639 10.749,-6.959 1.846,-0.725 3.662,-1.372 5.508,-2.098 2.367,-1.341 4.814,-2.65 7.262,-3.96 0.346,0.047 0.536,0.032 0.787,-0.142 2.447,-0.394 4.783,-0.741 7.229,-1.135 2.21,0.884 4.451,1.689 6.692,2.495 3.251,0.111 6.392,0.269 9.533,0.428 2.115,-0.71 4.229,-1.42 6.376,-2.21 l 0.189,-0.015 c 5.083,1.027 10.244,2.085 15.372,3.223 2.021,0.441 4.088,0.994 6.077,1.515 6.265,1.501 12.483,2.891 14.692,10.183 0.015,1.562 -0.049,3.093 -0.033,4.656 0.821,1.609 1.752,3.172 2.572,4.782 -1.816,4.766 -2.433,11.111 -5.858,13.951 -4.072,3.314 -10.575,3.549 -15.973,5.142 -3.046,0.521 -6.012,1.073 -9.217,1.53 -3.565,-6.187 -7.874,-7.545 -13.226,-1.723 -0.774,0.789 -2.351,1.531 -3.252,1.263 -6.612,-2.006 -6.486,3.629 -7.655,7.006 -0.837,2.777 -0.38,5.981 -0.506,9.043 0.474,0.19 0.837,0.427 1.136,0.821 2.288,3.204 4.623,6.519 6.991,9.755 1.104,2.731 2.256,5.572 3.36,8.302 2.461,5.746 5.853,10.307 12.639,11.649 1.973,0.332 3.456,3.031 5.113,4.61 4.702,4.72 8.726,10.45 14.281,13.954 9.264,5.905 17.975,12.046 24.523,21.074 3.455,7.608 6.989,15.248 10.759,23.439 -5.854,1.136 -9.769,2.224 -13.777,2.634 -17.789,1.67 -33.664,-4.867 -49.398,-11.988 -9.264,-4.988 -18.527,-9.977 -27.792,-14.966 -7.022,-3.726 -13.997,-7.341 -21.02,-11.067 -0.488,0.079 -1.026,0.047 -1.484,0.047 -6.391,-1.643 -13.368,-2.054 -17.344,-8.589 -1.814,-0.726 -3.66,-1.373 -5.507,-2.021 -0.884,-0.536 -1.736,-1.152 -2.541,-1.658 -0.773,-0.583 -1.468,-1.136 -2.241,-1.72 -6.28,-3.063 -12.609,-6.236 -18.858,-9.378 -4.672,-0.222 -9.422,-0.475 -14.062,-0.775 -2.794,-1.027 -5.587,-2.053 -8.381,-3.08 -0.3,-0.394 -0.678,-0.82 -1.056,-1.246 -8.27,-3.127 -16.587,-6.364 -24.936,-9.522 -1.562,-1.357 -3.203,-2.747 -4.766,-4.104 -0.347,-0.505 -0.662,-1.089 -0.93,-1.562 -1.941,-1.784 -3.882,-3.568 -5.855,-5.273 l -12.388,-4.958 c -1.342,-0.994 -2.825,-1.863 -3.913,-3.031 -6.155,-6.582 -8.946,-17.677 -21.383,-15.423 -0.38,0.032 -0.948,-0.379 -1.39,-0.647 -6.438,-3.584 -12.957,-7.199 -19.474,-10.814 -2.762,-1.563 -6.044,-2.511 -8.207,-4.658 -5.428,-5.651 -10.287,-11.807 -15.432,-17.711 0.269,-0.899 0.537,-1.799 0.774,-2.62 -0.331,-0.772 -0.694,-1.467 -1.057,-2.162 -0.047,-1.026 -0.015,-2.02 -0.063,-3.046 -2.761,-1.105 -5.477,-2.1 -8.237,-3.205 l -2.763,-1.105 c -11.093,-4.074 -22.268,-8.18 -33.362,-12.253 -0.442,-1.642 -0.883,-3.283 -1.294,-5.003 -0.394,-0.158 -0.756,-0.395 -1.12,-0.632 0.079,-0.426 0.158,-0.852 0.316,-1.247 -2.131,-1.31 -4.261,-2.62 -6.391,-3.93 -1.342,-0.537 -2.73,-1.184 -4.072,-1.721 -5.349,-5.162 -12.529,-9.409 -15.685,-15.707 -7.068,-13.905 -17.373,-24.987 -27.014,-36.809 -0.742,-3.41 -1.451,-6.898 -2.271,-10.339 0.932,0.191 1.83,0.458 2.841,0.68 9.437,4.326 18.874,8.652 28.311,12.977 1.5,0.143 3.031,0.207 4.53,0.349 1.531,-0.395 3.568,-1.594 4.529,-1.026 4.088,2.368 18.955,2.734 22.964,0.036 9.077,-5.98 14.506,-3.99 18.449,6.742 -0.884,0.836 -1.657,1.626 -2.43,2.415 1.31,2.904 2.697,5.84 4.118,8.697 2.887,-0.584 5.808,-1.246 8.807,-1.877 6.944,1.405 11.536,5.257 12.418,12.659 2.605,1.5 5.129,2.969 7.733,4.468 1.625,1.2 3.298,2.51 4.923,3.71 1.043,1.058 2.052,2.194 3.015,3.22 -1.579,3.946 -0.364,6.629 3.676,7.971 4.134,2.021 8.506,3.679 12.373,6.141 7.48,4.642 14.171,10.798 23.703,11.226 0.915,0 2.162,0.316 2.714,0.994 8.49,11.271 17.787,3.365 26.799,1.204 5.145,0.412 10.291,0.823 15.435,1.234 3.457,-0.631 6.913,-1.261 10.37,-1.892 0.884,0.079 1.83,0.458 2.73,0.269 7.592,-1.814 9.77,1.438 8.143,8.476 4.119,-0.915 8.207,-1.75 12.248,-2.696 C -19.618,-3.823 -8.869,-6.204 0,0"
         style="fill:#3c3e40;fill-opacity:1;fill-rule:nonzero;stroke:none"
         transform="matrix(1.3333333,0,0,-1.3333333,751.7664,514.9876)"
         clip-path="url(#clipPath3)"
         id="path8" />
      <path
         d="m 0,0 c -1.862,-1.294 -4.371,-1.658 -6.612,-2.463 -3.615,0.11 -7.339,0.725 -10.938,0.109 -3.757,-0.68 -7.449,-3.805 -11,-3.396 -17.409,1.639 -31.422,-4.519 -39.643,-18.519 -1.294,-0.426 -2.667,-0.884 -4.072,-1.264 -2.525,5.856 -6.944,4.545 -11.522,3.171 -2.462,-0.711 -5.018,-1.185 -7.48,-1.437 -2.572,-0.206 -5.319,0.709 -7.623,0.061 -4.182,-1.215 -8.128,-3.252 -12.2,-4.973 -7.969,-3.189 -15.134,-7.247 -17.279,-16.528 -2.287,-1.373 -4.529,-2.636 -6.675,-4.136 -4.623,-3.314 -10.557,-5.872 -13.334,-10.371 -5.239,-8.413 -8.741,-17.962 -12.891,-27.038 0.205,-0.742 0.489,-1.452 0.695,-2.194 2.889,0.79 5.792,1.311 8.522,2.496 5.903,2.636 11.758,5.62 17.597,8.415 0.599,0.789 1.23,1.499 1.72,2.336 4.087,6.945 8.41,10.323 17.802,7.674 5.444,-1.484 12.64,3.41 19.063,5.431 l 5.524,2.211 c 1.342,0.537 2.683,1.074 4.072,1.721 0.441,0.268 0.836,0.426 1.279,0.695 0.236,-0.363 0.426,-0.837 0.536,-1.342 0.426,0.079 0.773,0.127 1.167,0.284 2.874,-3.061 5.858,-6.169 8.809,-9.2 1.957,4.262 3.913,8.524 5.727,12.912 1.151,2.841 2.113,5.697 3.233,8.617 5.556,2.132 8.556,-1.245 11.318,-5.174 -0.284,-0.205 -0.678,-0.363 -0.962,-0.569 1.989,-4.971 4.089,-9.989 6.189,-15.008 0.032,-0.536 0.063,-1.073 0.095,-1.61 1.31,-2.588 2.653,-5.255 4.041,-7.812 3.283,1.864 5.918,3.285 8.522,4.784 2.526,-0.82 5.051,-1.641 7.529,-2.571 9.77,-3.597 21.796,1.124 27.381,10.042 1.878,2.857 5.744,4.404 8.711,6.599 2.226,-3.962 4.215,-8.017 6.647,-11.804 2.13,-3.268 4.736,-6.344 7.103,-9.516 1.126,0.193 2.28,0.375 3.44,0.56 V 8.958 C 21.842,8.349 19.194,7.733 16.539,7.168 9.658,7.893 5.05,3.395 0,0"
         style="fill:#3c3e40;fill-opacity:1;fill-rule:nonzero;stroke:none"
         transform="matrix(1.3333333,0,0,-1.3333333,1090.9987,321.3732)"
         clip-path="url(#clipPath4)"
         id="path9" />
      <path
         d="M 0,0 0.032,-0.079 C -1.214,-0.394 -2.494,-0.632 -3.74,-0.947 -2.494,-0.632 -1.246,-0.316 0,0 m -123.103,-106.664 c 0.9,0.268 1.768,0.616 2.588,0.853 -1.674,4.182 -0.127,5.808 4.244,5.635 2.053,-0.094 4.136,0.19 6.282,0.316 6.582,-0.203 11.632,2.275 15.072,8.32 4.464,7.829 10.257,8.683 18.922,6.474 7.323,-1.829 15.152,-1.259 24.022,-1.921 0.236,-0.363 1.231,-2.162 2.084,-3.834 3.772,1.783 7.464,3.536 11.157,5.288 0.584,0.143 1.135,0.363 1.688,0.584 2.147,1.958 4.182,3.962 6.328,5.92 3.015,0.474 6.108,0.98 9.122,1.453 0.601,-0.125 1.2,-0.252 1.831,-0.457 0.505,0.111 0.932,0.19 1.469,0.222 2.13,-0.063 4.34,-0.094 6.47,-0.157 0.505,0.11 0.963,0.11 1.499,0.142 1.579,-0.284 3.268,-0.615 4.956,-0.946 -1.088,-4.83 -2.097,-9.628 -3.453,-15.847 2.603,0.585 5.16,1.059 7.686,1.612 0.646,0.899 1.404,1.752 2.161,2.604 l 1.657,3.867 c 1.783,2.636 -1.896,8.396 4.765,8.224 1.373,0.458 2.856,0.868 4.229,1.326 3.504,0.395 7.007,0.79 10.511,1.186 1.01,-1.153 2.021,-2.305 3.031,-3.456 -0.505,-2.399 -1.12,-4.752 -1.624,-7.15 0.189,-0.931 0.489,-1.91 0.679,-2.841 1.956,-0.774 3.993,-1.515 6.029,-2.256 2.7,-0.11 5.398,-0.22 8.096,-0.33 2.478,0.442 4.925,0.964 7.403,1.406 1.151,1.01 2.382,2.052 3.566,2.983 1.231,1.042 2.382,2.052 3.535,3.063 0.946,0.378 1.926,0.679 2.793,1.026 2.889,2.163 5.744,4.405 8.553,6.536 0.695,1.01 1.341,1.91 2.036,2.92 -0.063,1.531 -0.127,3.062 -0.191,4.592 -2.92,2.036 -5.84,4.071 -8.76,6.107 -0.347,0.868 -0.695,1.736 -1.121,2.572 5.13,-0.693 10.18,-1.418 15.2,-2.065 l 17.833,7.137 c 4.844,2.763 10.857,4.436 11.598,12.423 -3.267,1.073 -6.503,2.066 -9.739,3.06 -2.683,2.588 -5.445,5.145 -8.129,7.732 -4.057,-0.158 -8.112,-0.317 -12.784,-0.539 1.041,3.346 1.704,5.351 2.335,7.435 4.086,4.656 -1.028,5.997 -2.859,8.743 -1.593,2.382 -3.346,5.618 -2.905,8.174 0.536,3.236 3.14,6.109 4.813,9.25 1.403,2.667 2.618,5.351 4.448,9.012 C 63.019,9.291 52.445,8.263 42.644,1.411 35.353,-3.703 26.61,-4.273 19.238,2.939 18.796,3.128 18.244,3.365 17.803,3.554 12.405,3.774 7.054,4.105 1.657,4.324 -2.068,7.228 -5.92,8.158 -9.707,4.354 -13.464,3.217 -17.298,2.049 -21.054,0.912 l -3.03,-0.663 c -0.521,0.157 -1.152,0.362 -1.784,0.567 l -10.968,-4.389 c -0.252,-0.742 -0.426,-1.452 -0.599,-2.162 -4.308,-2.731 -8.506,-5.51 -12.783,-8.32 -2.352,-0.758 -4.703,-1.515 -7.054,-2.274 -1.594,-1.278 -3.109,-2.525 -4.702,-3.804 -0.489,-5.871 -4.908,-7.182 -9.643,-8.162 -1.863,-0.837 -3.677,-1.563 -5.492,-2.289 -1.278,-0.694 -2.588,-1.31 -3.946,-2.037 -0.598,-1.246 -1.23,-2.415 -1.83,-3.661 -0.646,-0.9 -1.325,-1.721 -2.051,-2.652 -1.688,-1.042 -3.345,-2.163 -5.112,-3.236 -2.667,-2.716 -5.255,-5.399 -7.922,-8.114 -6.139,-4.105 -12.436,-7.814 -18.227,-12.329 -5.35,-4.246 -13.335,-6.252 -13.95,-15.012 -0.251,-0.284 -0.504,-0.568 -0.836,-0.884 0.521,-0.157 0.963,-0.346 1.405,-0.536 0.316,-0.332 0.583,-0.774 0.931,-1.184 0.505,-0.347 1.01,-0.694 1.563,-0.93 0.269,-0.442 0.616,-0.852 0.884,-1.295 -1.925,-4.798 -3.929,-9.628 -5.71,-14.552 -0.49,-1.295 -0.238,-2.841 -0.237,-4.214 -0.267,-7.339 5.982,-3.74 9.044,-5.444"
         style="fill:#3c3e40;fill-opacity:1;fill-rule:nonzero;stroke:none"
         transform="matrix(1.3333333,0,0,-1.3333333,456.7144,639.0456)"
         clip-path="url(#clipPath5)"
         id="path10" />
      <path
         d="m 0,0 c -3.315,5.997 -7.704,11.473 -11.54,17.17 -2.258,1.751 -4.514,3.503 -6.772,5.254 0.41,0.347 0.821,0.694 1.153,1.01 0.914,1.831 1.751,3.631 2.587,5.43 -2.969,4.671 -5.951,9.153 -8.778,13.698 -1.61,2.651 -2.905,5.429 -4.435,8.112 -2.843,5.728 -5.685,11.457 -8.558,17.264 -4.498,4.609 -8.997,9.216 -13.575,13.792 -9.203,8.584 -10.041,20.058 -11.022,31.658 -0.253,2.463 -2.163,4.719 -3.331,7.181 -3.315,-0.869 -6.628,-1.737 -9.943,-2.606 -1.009,-0.221 -1.941,-0.411 -2.95,-0.631 -1.106,0.472 -2.321,0.993 -3.537,1.514 -1.357,0.647 -2.793,1.262 -4.23,1.878 -0.599,0.126 -1.278,0.22 -1.878,0.346 -2.226,0.3 -4.372,0.631 -6.597,0.931 -0.632,0.204 -1.231,0.331 -1.862,0.536 -0.537,-0.032 -0.995,-0.032 -1.531,-0.064 -0.443,0.19 -0.884,0.379 -1.374,0.458 -0.347,0.41 -0.773,0.789 -1.2,1.167 -2.321,6.029 -4.61,11.979 -6.821,17.96 l -1.751,0.947 c -3.19,9.342 -6.412,18.764 -9.601,28.107 -0.505,0.805 -0.963,1.72 -1.468,2.525 -2.02,-1.358 -4.04,-2.715 -6.06,-4.073 -4.403,-3.867 -8.757,-7.624 -13.114,-11.382 -0.173,-4.829 -1.686,-10.195 -0.249,-14.472 3.315,-9.659 8.241,-18.764 12.141,-28.281 2.132,-5.097 3.395,-10.542 5.053,-15.829 -2.508,-10.432 -10.556,-16.4 -23.277,-17.554 -12.91,-1.138 -25.016,0.059 -34.628,10.127 1.373,2.289 2.635,4.625 4.008,6.913 6.674,10.544 13.9,20.852 19.991,31.711 4.749,8.492 4.337,17.756 0.106,26.957 -2.067,-1.926 -3.614,-4.01 -4.15,-6.33 -1.436,-5.335 -2.16,-10.843 -3.627,-16.099 -2.13,-8.176 -7.133,-11.917 -15.513,-12.25 -8.051,11.426 -20.03,15.969 -33.005,18.65 -5.429,2.587 0.015,6.14 -0.837,9.186 l -17.596,-7.042 c 1.499,-2.147 2.556,-3.646 3.504,-5.098 -0.521,-1.215 -1.121,-2.462 -1.72,-3.709 -5.097,-0.3 -10.291,-1.28 -15.246,-0.792 -5.145,0.505 -9.218,0.614 -10.337,-4.137 -7.591,-0.474 -14.346,-0.98 -21.133,-1.408 10.307,-5.853 21.482,-5.867 32.64,-4.24 8.27,1.296 16.461,3.933 24.684,0.083 1.957,-0.773 3.835,-1.577 5.792,-2.351 5.794,-7.842 8.511,-16.002 5.812,-25.961 -1.766,-6.566 -4.606,-10.906 -11.013,-12.738 -21.687,4.32 -37.171,18.081 -51.726,33.403 -2.036,2.115 -4.687,3.708 -7.008,5.617 -4.229,-2.699 -8.507,-5.509 -12.736,-8.208 -1.498,-2.889 -3.028,-5.699 -4.401,-8.445 5.697,-0.741 10.968,-1.103 16.224,-2.113 11.601,-2.223 18.879,-10.113 17.317,-19.709 9.627,3.395 13.606,-3.801 18.594,-9.404 0.552,-0.694 1.515,-1.041 2.241,-1.482 4.294,-2.493 8.666,-4.955 12.959,-7.448 -0.331,-0.773 -0.663,-1.547 -1.074,-2.352 -12.261,-4.815 -24.571,-9.741 -36.912,-14.589 3.425,-2.84 7.024,-5.428 10.276,-8.521 4.562,-4.308 9.076,-3.691 13.762,-0.534 1.737,-0.678 3.505,-1.436 5.24,-2.114 -3.314,-2.7 -6.912,-5.146 -9.957,-8.288 -4.339,-4.482 -8.222,-9.423 -12.323,-14.269 2.509,-1.01 5.018,-2.019 7.528,-3.029 2.731,-0.189 5.461,-0.378 8.113,-0.598 l 2.761,1.104 0.505,0.569 0.632,0.253 c 1.45,5.523 1.023,12.31 9.277,12.958 1.357,0.727 2.636,1.421 3.914,2.116 1.484,0.411 2.889,0.79 4.372,1.2 1.341,0.537 2.762,1.106 4.135,1.563 0.252,0.742 0.504,1.484 0.788,2.147 3.457,1.658 6.328,8.208 10.953,1.454 3.678,-0.725 7.339,-1.641 11.049,-1.987 3.471,-0.442 6.881,-0.267 10.384,-0.33 2.211,-4.608 4.469,-9.106 6.679,-13.713 0.521,-1.074 0.963,-2.178 1.485,-3.252 l 0.315,-0.331 c 3.961,-0.063 9.043,5.084 11.679,-2.192 2.132,-3.724 4.152,-7.401 6.283,-11.126 2.336,-0.347 4.593,-0.725 6.85,-1.103 0.916,0.458 1.784,0.805 2.699,1.263 1.437,-1.073 2.825,-2.257 4.263,-3.33 1.087,-1.12 2.288,-2.288 3.377,-3.408 0.663,-0.284 1.294,-0.49 1.878,-0.805 1.136,-0.095 2.162,-0.142 3.189,-0.188 1.372,0.457 2.745,0.915 4.119,1.373 0.379,-0.947 0.679,-1.925 1.058,-2.872 0.252,-2.004 0.505,-4.009 0.805,-5.903 0.648,-1.846 1.248,-3.803 1.895,-5.65 0.616,-1.309 1.184,-2.73 1.8,-4.039 0.995,-2.258 2.036,-4.404 3.031,-6.661 2.163,-2.887 4.405,-5.744 6.567,-8.631 0.396,-1.097 0.791,-2.193 1.187,-3.289 H 22.22 C 15.091,-27.461 7.659,-13.719 0,0"
         style="fill:#3c3e40;fill-opacity:1;fill-rule:nonzero;stroke:none"
         transform="matrix(1.3333333,0,0,-1.3333333,929.28507,740.7976)"
         clip-path="url(#clipPath6)"
         id="path11" />
    </g>
  </g>
</svg>
