<?xml version="1.0" encoding="UTF-8" standalone="no"?>
<!-- Created with Inkscape (http://www.inkscape.org/) -->

<svg
   width="115.55063mm"
   height="43.463734mm"
   viewBox="0 0 115.55062 43.463734"
   version="1.1"
   id="svg1"
   sodipodi:docname="logosamagokhvert.svg"
   inkscape:version="1.3.1 (9b9bdc1480, 2023-11-25, custom)"
   xmlns:inkscape="http://www.inkscape.org/namespaces/inkscape"
   xmlns:sodipodi="http://sodipodi.sourceforge.net/DTD/sodipodi-0.dtd"
   xmlns="http://www.w3.org/2000/svg"
   xmlns:svg="http://www.w3.org/2000/svg">
  <sodipodi:namedview
     id="namedview1"
     pagecolor="#ffffff"
     bordercolor="#000000"
     borderopacity="0.25"
     inkscape:showpageshadow="2"
     inkscape:pageopacity="0.0"
     inkscape:pagecheckerboard="0"
     inkscape:deskcolor="#d1d1d1"
     inkscape:document-units="mm"
     inkscape:zoom="1.0217435"
     inkscape:cx="338.63685"
     inkscape:cy="79.765616"
     inkscape:window-width="1850"
     inkscape:window-height="1011"
     inkscape:window-x="0"
     inkscape:window-y="0"
     inkscape:window-maximized="1"
     inkscape:current-layer="layer1" />
  <defs
     id="defs1" />
  <g
     inkscape:label="Calque 1"
     inkscape:groupmode="layer"
     id="layer1"
     transform="translate(-43.952179,-108.35945)">
    <g
       id="g91"
       transform="matrix(0.26458333,0,0,0.26458333,-69.790355,1.0643994)">
	<g
   id="g82">
		<path
   class="st12"
   d="m 665.55,488.36 c -0.07,-0.01 -10.7,3.44 -10.96,3.62 -0.25,0.18 -0.41,0.32 -0.43,0.39 -0.06,0.07 -0.17,0.17 -0.35,0.24 -0.34,0.12 -0.64,-0.01 -0.71,-0.04 -0.35,-0.27 -0.71,-0.55 -1.09,-0.83 -0.53,-0.38 -1.05,-0.74 -1.56,-1.07 -0.31,-0.2 -0.65,-0.32 -1.01,-0.38 -0.66,-0.1 -1.49,-0.16 -2.42,-0.08 -0.8,0.07 -1.5,0.22 -2.08,0.38 -0.34,0.1 -0.6,0.37 -0.69,0.71 -0.06,0.23 -0.14,0.48 -0.24,0.74 -0.17,0.42 -0.36,0.78 -0.54,1.08 -0.15,0.24 -0.17,0.54 -0.04,0.78 0.02,0.03 0.04,0.06 0.06,0.09 0.24,0.31 0.71,0.42 1.15,0.24 0.24,-0.08 0.61,-0.23 0.98,-0.53 0.26,-0.21 0.45,-0.39 0.58,-0.58 0.09,-0.13 0.23,-0.21 0.38,-0.23 0.37,-0.05 0.74,-0.09 1.11,-0.14 0.14,-0.02 0.27,0.02 0.38,0.09 1.16,0.82 2.36,1.78 3.63,2.87 1.39,1.19 2.81,2.27 3.87,3.39 0.28,0.29 0.2,0.79 0,1.14 -0.02,0.03 -0.04,0.07 -0.07,0.1 -0.03,0.04 -0.06,0.07 -0.09,0.1 -0.34,0.35 -0.95,0.47 -1.35,0.19 -0.24,-0.17 -0.5,-0.21 -0.74,-0.38 -1.56,-0.84 -2.51,-1.99 -3.6,-2.78"
   id="path75"
   style="fill:none;stroke:#4b4a4a;stroke-miterlimit:10" />

		<path
   class="st12"
   d="m 653.43,500.28 c 0.05,0.29 0.12,1.02 -0.3,1.48 -0.35,0.38 -0.99,0.54 -1.73,0.39 -0.03,-0.01 -0.07,-0.01 -0.1,-0.02 -0.52,-0.12 -1.07,-0.4 -1.6,-0.84 v 0 c -0.52,-0.51 -1.05,-1.02 -1.57,-1.53"
   id="path76"
   style="fill:none;stroke:#4b4a4a;stroke-miterlimit:10" />

		<path
   class="st12"
   d="m 651.37,502.24 c -0.11,0.16 -0.37,0.53 -0.87,0.77 -0.57,0.28 -1.1,0.21 -1.29,0.18 -0.45,-0.22 -0.97,-0.52 -1.51,-0.93 -0.62,-0.46 -1.1,-0.94 -1.47,-1.35"
   id="path77"
   style="fill:none;stroke:#4b4a4a;stroke-miterlimit:10" />

		<path
   class="st12"
   d="m 641.25,498.39 c 0,0 -0.73,-1.99 -1.82,-1.16 -1.08,0.84 0.14,2.75 1.02,2.04 0,0 -0.2,2.23 1.66,1.63 0,0 -0.03,1.93 1.62,1.36 0,0 0.35,2.28 2.32,0.91 0.27,-0.19 0.64,0.29 1.03,0.42 0.42,0.14 0.82,0.24 1.17,0.31 0.1,0 0.35,-0.02 0.61,-0.19 0.25,-0.17 0.36,-0.4 0.4,-0.49"
   id="path78"
   style="fill:none;stroke:#4b4a4a;stroke-miterlimit:10" />

		<path
   class="st12"
   d="m 640.45,499.27 c 0,0 1.72,-2.41 2.71,-1.12 0.99,1.29 0.16,1.58 -1.05,2.75"
   id="path79"
   style="fill:none;stroke:#4b4a4a;stroke-miterlimit:10" />

		<path
   class="st12"
   d="m 646.05,503.17 c 0,0 -0.13,-0.53 -0.13,-1.23 -0.01,-0.7 -0.69,-0.95 -0.91,-0.85 -0.22,0.11 1.1,-2.54 -1.47,-1.67"
   id="path80"
   style="fill:none;stroke:#4b4a4a;stroke-miterlimit:10" />

		<line
   class="st12"
   x1="643.72998"
   y1="502.26001"
   x2="645.01001"
   y2="501.09"
   id="line80"
   style="fill:none;stroke:#4b4a4a;stroke-miterlimit:10" />

		<path
   class="st12"
   d="m 639.5,497.18 c 0,0 -3.07,-1.26 -3.24,-1.18 -0.17,0.07 -1.23,2.26 -1.78,2.27 -0.55,0.01 -1.92,-0.19 -1.99,-0.49 -0.07,-0.3 -0.68,2.19 -1.49,2.5 l -7.22,-2.87"
   id="path81"
   style="fill:none;stroke:#4b4a4a;stroke-miterlimit:10" />

		<path
   class="st12"
   d="m 652.74,496.65 c 0,0 0.69,0.08 1.35,-0.47"
   id="path82"
   style="fill:none;stroke:#4b4a4a;stroke-miterlimit:10" />

	</g>

	<g
   id="g90">
		<path
   class="st1"
   d="m 520.74,478.04 c -1.27,1.39 -3.27,1.72 -5,0.97 -0.17,-0.07 -0.34,-0.14 -0.52,-0.2 -1.24,-0.44 -2.42,-0.66 -3.53,-0.66 -0.65,0 -1.32,0.08 -2.01,0.23 -0.69,0.15 -1.34,0.39 -1.95,0.72 -0.61,0.33 -1.11,0.76 -1.49,1.29 -0.38,0.54 -0.57,1.19 -0.57,1.95 0,1.22 0.46,2.16 1.38,2.81 0.92,0.65 2.07,1.2 3.47,1.66 1.4,0.46 2.9,0.92 4.5,1.38 1.61,0.46 3.11,1.11 4.5,1.95 1.4,0.84 2.55,1.97 3.47,3.38 0.92,1.42 1.38,3.31 1.38,5.68 0,2.26 -0.42,4.23 -1.26,5.91 -0.84,1.68 -1.98,3.08 -3.41,4.19 -1.43,1.11 -3.1,1.93 -4.99,2.47 -1.89,0.54 -3.89,0.8 -5.99,0.8 -2.64,0 -5.09,-0.4 -7.34,-1.2 l -0.07,-0.02 c -3.51,-1.26 -4.61,-5.67 -2.1,-8.43 v 0 c 1.1,-1.21 2.92,-1.41 4.25,-0.46 0.45,0.32 0.93,0.61 1.44,0.85 1.4,0.67 2.84,1 4.33,1 0.73,0 1.46,-0.09 2.21,-0.26 0.75,-0.17 1.41,-0.43 2.01,-0.77 0.59,-0.34 1.07,-0.78 1.43,-1.32 0.36,-0.54 0.54,-1.17 0.54,-1.89 0,-1.22 -0.47,-2.19 -1.41,-2.9 -0.94,-0.71 -2.11,-1.31 -3.53,-1.81 -1.42,-0.5 -2.95,-0.99 -4.59,-1.49 -1.64,-0.5 -3.17,-1.17 -4.59,-2.01 -1.42,-0.84 -2.59,-1.95 -3.53,-3.33 -0.94,-1.38 -1.41,-3.19 -1.41,-5.45 0,-2.18 0.43,-4.09 1.29,-5.74 0.86,-1.64 2.01,-3.02 3.44,-4.13 1.43,-1.11 3.09,-1.94 4.96,-2.5 1.87,-0.55 3.8,-0.83 5.79,-0.83 2.29,0 4.51,0.33 6.65,0.98 0.16,0.05 0.33,0.1 0.49,0.16 2.93,1 3.89,4.66 1.8,6.94 z"
   id="path83"
   style="fill:#2d6c5a" />

		<path
   class="st1"
   d="m 547.43,508.03 h -0.11 c -0.96,1.49 -2.23,2.56 -3.81,3.21 -1.59,0.65 -3.26,0.98 -5.02,0.98 -1.3,0 -2.55,-0.18 -3.76,-0.55 -1.2,-0.36 -2.27,-0.91 -3.18,-1.63 -0.92,-0.73 -1.64,-1.63 -2.18,-2.7 -0.54,-1.07 -0.8,-2.31 -0.8,-3.73 0,-1.61 0.3,-2.96 0.89,-4.07 0.59,-1.11 1.4,-2.03 2.41,-2.75 1.01,-0.73 2.17,-1.29 3.47,-1.69 1.3,-0.4 2.65,-0.7 4.04,-0.89 1.4,-0.19 2.79,-0.31 4.19,-0.34 1.4,-0.04 2.69,-0.06 3.87,-0.06 0,-1.53 -0.55,-2.74 -1.64,-3.64 -1.09,-0.9 -2.38,-1.35 -3.87,-1.35 -1.42,0 -2.71,0.3 -3.87,0.89 -0.39,0.2 -0.76,0.42 -1.13,0.67 -1.28,0.87 -2.98,0.77 -4.06,-0.34 l -0.01,-0.01 c -1.43,-1.46 -1.1,-3.92 0.7,-4.89 0.76,-0.41 1.56,-0.76 2.4,-1.05 2.14,-0.75 4.36,-1.12 6.65,-1.12 2.52,0 4.6,0.32 6.22,0.95 1.63,0.63 2.93,1.56 3.9,2.78 0.98,1.22 1.65,2.72 2.04,4.5 0.38,1.78 0.57,3.83 0.57,6.17 v 10.67 c 0,1.93 -1.57,3.5 -3.5,3.5 h -0.92 c -1.92,-0.01 -3.49,-1.58 -3.49,-3.51 z m -2.12,-8.72 c -0.65,0 -1.46,0.03 -2.44,0.09 -0.97,0.06 -1.91,0.22 -2.81,0.49 -0.9,0.27 -1.66,0.67 -2.29,1.2 -0.63,0.54 -0.95,1.28 -0.95,2.24 0,1.03 0.44,1.8 1.32,2.29 0.88,0.5 1.8,0.75 2.75,0.75 0.84,0 1.65,-0.11 2.44,-0.34 0.78,-0.23 1.48,-0.55 2.09,-0.98 0.61,-0.42 1.1,-0.96 1.46,-1.61 0.36,-0.65 0.55,-1.41 0.55,-2.29 v -1.84 z"
   id="path84"
   style="fill:#2d6c5a" />

		<path
   class="st1"
   d="m 564.52,483.65 h 0.69 c 2.09,0 3.79,1.7 3.79,3.79 v 0 h 0.11 c 0.27,-0.54 0.65,-1.07 1.15,-1.61 0.5,-0.54 1.09,-1.01 1.78,-1.43 0.69,-0.42 1.47,-0.76 2.35,-1.03 0.88,-0.27 1.84,-0.4 2.87,-0.4 1.95,0 3.68,0.4 5.19,1.2 1.51,0.8 2.65,2.07 3.41,3.79 0.99,-1.8 2.2,-3.08 3.61,-3.84 1.41,-0.76 3.16,-1.15 5.22,-1.15 1.87,0 3.45,0.32 4.73,0.95 1.28,0.63 2.29,1.49 3.04,2.58 0.75,1.09 1.28,2.37 1.61,3.84 0.32,1.47 0.49,3.05 0.49,4.73 v 12.16 c 0,2.38 -1.93,4.3 -4.3,4.3 v 0 c -2.38,0 -4.3,-1.93 -4.3,-4.3 V 495.3 c 0,-1.3 -0.28,-2.42 -0.83,-3.36 -0.55,-0.94 -1.54,-1.41 -2.95,-1.41 -0.99,0 -1.83,0.16 -2.5,0.49 -0.67,0.33 -1.2,0.77 -1.61,1.35 -0.4,0.57 -0.69,1.24 -0.86,2.01 -0.17,0.77 -0.26,1.57 -0.26,2.41 v 10.44 c 0,2.38 -1.93,4.3 -4.3,4.3 v 0 c -2.38,0 -4.3,-1.93 -4.3,-4.3 v -10.44 c 0,-0.5 -0.02,-1.11 -0.06,-1.84 -0.04,-0.73 -0.17,-1.41 -0.4,-2.07 -0.23,-0.65 -0.6,-1.2 -1.12,-1.66 -0.52,-0.46 -1.27,-0.69 -2.27,-0.69 -1.11,0 -2.01,0.2 -2.7,0.6 -0.69,0.4 -1.21,0.94 -1.58,1.61 -0.36,0.67 -0.6,1.43 -0.72,2.27 -0.11,0.84 -0.17,1.72 -0.17,2.64 v 9.58 c 0,2.38 -1.93,4.3 -4.3,4.3 v 0 c -2.38,0 -4.3,-1.93 -4.3,-4.3 v -19.79 c 0.01,-2.09 1.7,-3.79 3.79,-3.79 z"
   id="path85"
   style="fill:#2d6c5a" />

		<path
   class="st1"
   d="m 628.14,508.03 h -0.11 c -0.96,1.49 -2.23,2.56 -3.81,3.21 -1.59,0.65 -3.26,0.98 -5.02,0.98 -1.3,0 -2.55,-0.18 -3.76,-0.55 -1.2,-0.36 -2.27,-0.91 -3.18,-1.63 -0.92,-0.73 -1.64,-1.63 -2.18,-2.7 -0.54,-1.07 -0.8,-2.31 -0.8,-3.73 0,-1.61 0.3,-2.96 0.89,-4.07 0.59,-1.11 1.4,-2.03 2.41,-2.75 1.01,-0.73 2.17,-1.29 3.47,-1.69 1.3,-0.4 2.65,-0.7 4.04,-0.89 1.4,-0.19 2.79,-0.31 4.19,-0.34 1.4,-0.04 2.69,-0.06 3.87,-0.06 0,-1.53 -0.55,-2.74 -1.64,-3.64 -1.09,-0.9 -2.38,-1.35 -3.87,-1.35 -1.42,0 -2.71,0.3 -3.87,0.89 -0.39,0.2 -0.76,0.42 -1.13,0.67 -1.28,0.87 -2.98,0.77 -4.06,-0.34 l -0.01,-0.01 c -1.43,-1.46 -1.1,-3.92 0.7,-4.89 0.76,-0.41 1.56,-0.76 2.4,-1.05 2.14,-0.75 4.36,-1.12 6.65,-1.12 2.52,0 4.6,0.32 6.22,0.95 1.63,0.63 2.93,1.56 3.9,2.78 0.97,1.22 1.65,2.72 2.04,4.5 0.38,1.78 0.57,3.83 0.57,6.17 v 10.67 c 0,1.93 -1.57,3.5 -3.5,3.5 h -0.92 c -1.93,-0.01 -3.49,-1.58 -3.49,-3.51 z m -2.12,-8.72 c -0.65,0 -1.46,0.03 -2.44,0.09 -0.98,0.06 -1.91,0.22 -2.81,0.49 -0.9,0.27 -1.66,0.67 -2.29,1.2 -0.63,0.54 -0.95,1.28 -0.95,2.24 0,1.03 0.44,1.8 1.32,2.29 0.88,0.5 1.8,0.75 2.75,0.75 0.84,0 1.65,-0.11 2.44,-0.34 0.78,-0.23 1.48,-0.55 2.09,-0.98 0.61,-0.42 1.1,-0.96 1.46,-1.61 0.36,-0.65 0.55,-1.41 0.55,-2.29 v -1.84 z"
   id="path86"
   style="fill:#2d6c5a" />

		<path
   class="st1"
   d="m 696.28,501.35 c 0,4.91 -3.37,9.24 -8.17,10.28 -0.03,0.01 -0.06,0.01 -0.09,0.02 -2.87,0.61 -5.79,0.92 -8.78,0.92 -3.17,0 -6.1,-0.5 -8.78,-1.49 -2.68,-0.99 -4.99,-2.42 -6.94,-4.27 -1.95,-1.85 -3.47,-4.1 -4.56,-6.74 -1.09,-2.64 -1.63,-5.58 -1.63,-8.83 0,-3.25 0.54,-6.2 1.63,-8.83 1.09,-2.63 2.61,-4.88 4.56,-6.74 1.95,-1.85 4.26,-3.28 6.94,-4.27 2.68,-0.99 5.6,-1.49 8.78,-1.49 3.25,0 6.24,0.39 8.98,1.18 0.72,0.21 1.41,0.45 2.09,0.74 2.86,1.21 3.68,4.87 1.58,7.16 v 0 c -1.45,1.58 -3.78,1.86 -5.63,0.79 -0.41,-0.24 -0.84,-0.45 -1.27,-0.63 -1.53,-0.65 -3.44,-0.98 -5.74,-0.98 -1.91,0 -3.64,0.33 -5.19,0.98 -1.55,0.65 -2.88,1.56 -3.99,2.72 -1.11,1.17 -1.96,2.55 -2.55,4.16 -0.59,1.61 -0.89,3.35 -0.89,5.22 0,1.91 0.3,3.66 0.89,5.25 0.59,1.59 1.44,2.96 2.55,4.13 1.11,1.17 2.44,2.07 3.99,2.72 1.55,0.65 3.28,0.98 5.19,0.98 1.95,0 3.63,-0.22 5.05,-0.66 0.01,0 0.03,-0.01 0.04,-0.01 2,-0.62 3.34,-2.5 3.34,-4.59 v -1.48 c 0,-1.03 -0.83,-1.86 -1.86,-1.86 h -1.3 c -2.28,0 -4.13,-1.85 -4.13,-4.13 v 0 c 0,-2.28 1.85,-4.13 4.13,-4.13 h 4.33 c 4.11,0 7.43,3.33 7.43,7.43 z"
   id="path87"
   style="fill:#2d6c5a" />

		<path
   class="st1"
   d="m 702.02,497.59 c 0,-2.22 0.4,-4.23 1.2,-6.02 0.8,-1.8 1.9,-3.34 3.3,-4.62 1.4,-1.28 3.04,-2.27 4.93,-2.95 1.89,-0.69 3.91,-1.03 6.05,-1.03 2.14,0 4.16,0.34 6.05,1.03 1.89,0.69 3.54,1.67 4.93,2.95 1.4,1.28 2.5,2.82 3.3,4.62 0.8,1.8 1.2,3.81 1.2,6.02 0,2.22 -0.4,4.23 -1.2,6.02 -0.8,1.8 -1.9,3.34 -3.3,4.62 -1.4,1.28 -3.04,2.27 -4.93,2.95 -1.89,0.69 -3.91,1.03 -6.05,1.03 -2.14,0 -4.16,-0.34 -6.05,-1.03 -1.89,-0.69 -3.54,-1.67 -4.93,-2.95 -1.4,-1.28 -2.5,-2.82 -3.3,-4.62 -0.8,-1.79 -1.2,-3.8 -1.2,-6.02 z m 8.61,0 c 0,2.1 0.6,3.81 1.81,5.11 1.2,1.3 2.9,1.95 5.08,1.95 2.18,0 3.87,-0.65 5.08,-1.95 1.2,-1.3 1.81,-3 1.81,-5.11 0,-2.1 -0.6,-3.8 -1.81,-5.11 -1.2,-1.3 -2.9,-1.95 -5.08,-1.95 -2.18,0 -3.87,0.65 -5.08,1.95 -1.21,1.31 -1.81,3.01 -1.81,5.11 z"
   id="path88"
   style="fill:#2d6c5a" />

		<path
   class="st1"
   d="m 742.35,468.16 v 0 c 2.38,0 4.3,1.93 4.3,4.3 v 22.2 l 8.34,-9.65 c 0.75,-0.87 1.84,-1.37 2.99,-1.37 v 0 c 3.4,0 5.21,4.01 2.96,6.56 l -5.29,6 6.27,8.46 c 2.1,2.84 0.08,6.86 -3.45,6.86 v 0 c -1.44,0 -2.78,-0.72 -3.58,-1.91 l -8.13,-12.2 h -0.11 v 9.81 c 0,2.37 -1.92,4.3 -4.3,4.3 h -0.01 c -2.37,0 -4.3,-1.92 -4.3,-4.3 v -34.76 c 0,-2.37 1.93,-4.3 4.31,-4.3 z"
   id="path89"
   style="fill:#2d6c5a" />

		<path
   class="st1"
   d="m 774.24,468.16 c 2.38,0 4.3,1.93 4.3,4.3 v 14.97 h 0.11 c 0.19,-0.54 0.52,-1.07 0.97,-1.61 0.46,-0.54 1.01,-1.01 1.66,-1.43 0.65,-0.42 1.41,-0.76 2.29,-1.03 0.88,-0.27 1.84,-0.4 2.87,-0.4 2.18,0 3.94,0.34 5.28,1 1.34,0.67 2.38,1.6 3.13,2.78 0.75,1.19 1.25,2.58 1.52,4.19 0.27,1.61 0.4,3.35 0.4,5.22 v 11.07 c 0,2.37 -1.92,4.3 -4.3,4.3 h -0.01 c -2.37,0 -4.3,-1.92 -4.3,-4.3 v -9.35 c 0,-0.8 -0.03,-1.64 -0.09,-2.5 -0.06,-0.86 -0.23,-1.65 -0.52,-2.38 -0.29,-0.73 -0.73,-1.32 -1.32,-1.78 -0.59,-0.46 -1.44,-0.69 -2.55,-0.69 -1.11,0 -2.01,0.2 -2.7,0.6 -0.69,0.4 -1.21,0.94 -1.58,1.61 -0.36,0.67 -0.6,1.43 -0.72,2.27 -0.11,0.84 -0.17,1.72 -0.17,2.64 v 9.58 c 0,2.37 -1.92,4.3 -4.3,4.3 h -0.01 c -2.37,0 -4.3,-1.92 -4.3,-4.3 v -34.76 c 0.04,-2.37 1.96,-4.3 4.34,-4.3 z"
   id="path90"
   style="fill:#2d6c5a" />

	</g>

	<path
   class="st1"
   d="m 767.96,460.03 c -0.02,-0.11 -0.05,-0.21 -0.05,-0.32 0,-0.17 0.09,-0.45 0.03,-0.48 -0.16,-0.09 -0.38,-0.09 -0.58,-0.09 -0.12,0 -0.23,0.04 -0.35,0.06 0.19,-0.15 0.37,-0.3 0.56,-0.43 0.27,-0.19 0.35,-0.38 0.05,-0.61 0.13,-0.04 0.26,-0.09 0.39,-0.1 0.19,-0.02 0.37,-0.02 0.56,-0.02 0.14,0.11 0.28,0.23 0.41,0.34 0.18,0.12 0.36,0.23 0.53,0.36 0.18,0.15 0.51,0.34 0.49,0.47 -0.07,0.4 -0.03,0.92 -0.6,1.06 -0.14,-0.07 -0.28,-0.14 -0.42,-0.21 -0.21,-0.04 -0.41,-0.08 -0.62,-0.12 -0.11,0.02 -0.25,0.05 -0.4,0.09 z m 0,0.56 c 0,0.74 -0.11,0.82 -0.85,0.63 -0.07,-0.02 -0.13,-0.03 -0.2,-0.05 0.03,0.13 0.07,0.26 0.1,0.39 0.03,0.01 0.07,0.03 0.1,0.04 0.31,0.04 0.63,0.07 0.94,0.11 0.07,-0.04 0.15,-0.08 0.22,-0.12 0.13,-0.14 0.27,-0.28 0.4,-0.42 -0.1,-0.42 -0.2,-0.83 -0.3,-1.25 -0.14,0.03 -0.29,0.07 -0.43,0.1 0.02,0.19 0.02,0.38 0.02,0.57 z m -51,-0.87 c -0.49,0.15 -0.97,0.34 -1.46,0.52 0.16,0.36 0.12,0.66 -0.22,0.91 -0.4,0.29 -0.06,0.58 0.01,0.87 0.43,0.18 0.82,0.16 1.21,-0.15 0.5,-0.4 0.9,-0.3 1.41,0.07 0.43,0.31 0.96,0.48 1.52,0.76 0,0.03 0.02,0.17 0.03,0.3 0.29,-0.02 0.58,-0.03 0.87,-0.05 0.06,-0.13 0.08,-0.32 0.18,-0.39 0.22,-0.16 0.48,-0.26 0.81,-0.44 0.68,0.36 1.42,0.77 2.17,1.14 0.19,0.09 0.44,0.06 0.65,0.12 0.26,0.07 0.51,0.17 0.76,0.26 -0.01,0.06 -0.02,0.11 -0.03,0.17 -0.1,0.03 -0.2,0.06 -0.3,0.09 0.04,0.1 0.07,0.2 0.11,0.31 0.2,0.15 0.47,0.27 0.58,0.47 0.21,0.36 0.42,0.37 0.76,0.19 0.23,-0.13 0.55,-0.13 0.76,-0.28 0.19,-0.13 0.29,-0.39 0.42,-0.59 0,-0.07 0,-0.13 -0.01,-0.2 0.08,-0.14 0.12,-0.35 0.23,-0.39 0.11,-0.04 0.29,0.09 0.43,0.15 0.16,0.07 0.31,0.21 0.47,0.22 0.59,0.01 1.21,0.09 1.68,-0.41 -0.11,-0.24 -0.22,-0.48 -0.33,-0.72 -0.27,-0.1 -0.54,-0.19 -0.85,-0.3 0.15,-0.19 0.25,-0.31 0.35,-0.43 -0.13,-0.21 -0.28,-0.41 -0.38,-0.63 -0.09,-0.21 -0.14,-0.44 -0.14,-0.67 0,-0.41 -0.18,-0.62 -0.59,-0.59 -0.66,0.05 -1.1,-0.33 -1.6,-0.7 -0.39,-0.29 -0.62,-0.92 -1.28,-0.8 -0.02,0 -0.06,-0.11 -0.1,-0.17 -0.36,-0.06 -0.73,-0.09 -1.08,-0.2 -0.12,-0.04 -0.19,-0.27 -0.28,-0.42 -0.07,-0.01 -0.14,-0.02 -0.21,-0.03 -0.04,-0.03 -0.07,-0.06 -0.11,-0.08 -0.28,0 -0.56,0 -0.84,0 -0.03,0.04 -0.06,0.08 -0.1,0.12 -0.35,0.07 -0.7,0.14 -1.05,0.21 -0.01,0.13 0,0.36 -0.04,0.37 -0.78,0.16 -1.5,0.64 -2.34,0.44 -0.13,-0.03 -0.23,-0.14 -0.35,-0.21 -0.07,0.04 -0.14,0.08 -0.2,0.12 -0.14,0.03 -0.28,0.05 -0.42,0.08 -0.24,0.11 -0.49,0.22 -0.73,0.33 0.12,0.34 -0.04,0.53 -0.37,0.63 z m 45.89,2.28 c 0.1,0.01 0.21,0.02 0.31,0.03 0.1,-0.01 0.21,-0.02 0.31,-0.04 0.49,-0.24 0.98,-0.48 1.48,-0.71 0.14,-0.06 0.32,-0.05 0.43,-0.14 0.53,-0.43 1.03,-0.35 1.54,0.03 0.07,0.02 0.13,0.03 0.2,0.05 0.74,0.19 0.85,0.11 0.85,-0.63 0,-0.19 0,-0.38 0,-0.57 -0.02,-0.11 -0.05,-0.21 -0.05,-0.32 0,-0.17 0.09,-0.45 0.03,-0.48 -0.16,-0.09 -0.38,-0.09 -0.58,-0.09 -0.12,0 -0.23,0.04 -0.35,0.06 -0.07,0 -0.14,0 -0.21,0 -0.32,0.18 -0.57,0.15 -0.73,-0.21 -0.21,-0.1 -0.42,-0.21 -0.63,-0.31 -0.14,-0.1 -0.28,-0.21 -0.42,-0.31 -0.28,0 -0.56,0 -0.84,0 -0.14,-0.18 -0.42,-0.41 -0.39,-0.54 0.12,-0.45 -0.41,-1.17 0.49,-1.34 0.14,-0.03 0.27,-0.1 0.4,-0.16 0,-0.06 0,-0.12 0,-0.18 -0.47,-0.07 -0.93,-0.16 -1.4,-0.21 -0.48,-0.05 -0.96,-0.05 -1.43,-0.13 -0.15,-0.02 -0.26,-0.24 -0.39,-0.37 -0.35,0 -0.7,0 -1.04,0 -0.35,-0.14 -0.7,-0.28 -1.05,-0.42 -0.65,-0.01 -1.29,-0.04 -1.88,0.31 -0.14,0 -0.28,0 -0.42,0 -0.14,-0.1 -0.28,-0.21 -0.42,-0.31 -0.1,0 -0.21,0 -0.31,0 -0.15,0.42 -0.3,0.83 0,1.25 0.14,0 0.28,0 0.42,0 0.03,-0.08 0.04,-0.19 0.1,-0.23 0.32,-0.23 1.44,0.34 1.46,0.74 0.01,0.24 -0.04,0.49 0.01,0.72 0.11,0.43 0.27,0.85 0.41,1.27 0,0.03 0,0.07 0,0.1 0.52,-0.03 1.04,-0.07 1.57,-0.1 0.24,-0.08 0.49,-0.34 0.73,0 0.14,0 0.28,0 0.42,0 0.56,-0.02 0.49,0.28 0.32,0.63 0.2,0.39 0.4,0.78 0.59,1.17 0.07,0.15 0.1,0.31 0.15,0.47 0.03,0.06 0.06,0.11 0.08,0.17 0,0.13 0,0.25 0,0.38 0.08,0.15 0.16,0.29 0.24,0.42 z m -10.06,0.1 c -1.56,-0.15 -2.91,0.51 -4.3,1.03 -0.5,0.19 -1.08,0.16 -1.63,0.23 -0.49,0.2 -0.68,0.54 -0.64,1.09 0.05,0.75 0.01,1.5 0.01,2.26 0.07,0.09 0.13,0.18 0.2,0.27 0.11,0.01 0.22,0.02 0.32,0.03 0.31,-0.25 0.6,-0.53 0.93,-0.75 0.37,-0.25 0.77,-0.47 1.18,-0.65 0.19,-0.08 0.51,-0.11 0.64,0 0.37,0.31 0.65,0.34 0.97,-0.04 0.06,-0.08 0.22,-0.07 0.33,-0.11 0.01,-0.14 0.02,-0.28 0.03,-0.41 -0.45,0.05 -0.51,-0.22 -0.4,-0.54 0.21,-0.62 0.56,-1.14 1.23,-1.35 0.14,-0.07 0.29,-0.19 0.43,-0.2 0.56,-0.02 1.13,-0.01 1.69,-0.01 0.4,0 0.68,0.13 0.83,0.55 0.22,0.62 0.66,1.07 1.19,1.43 0.11,0.08 0.39,0.09 0.45,0.01 0.11,-0.13 0.13,-0.35 0.14,-0.54 0.01,-0.24 -0.02,-0.49 -0.04,-0.73 -0.31,-0.56 -0.62,-1.11 -0.93,-1.67 -0.38,-0.21 -0.88,-0.27 -0.88,-0.9 0,-0.27 -0.35,-0.32 -0.6,-0.13 -0.15,0.12 -0.33,0.2 -0.5,0.3 -0.08,0.1 -0.15,0.2 -0.23,0.3 0.03,0.32 -0.11,0.57 -0.42,0.53 z m -9.5,0.02 c -0.03,-0.01 -0.07,-0.02 -0.1,-0.03 -0.02,-0.02 -0.05,-0.05 -0.07,-0.07 -0.02,-0.04 -0.03,-0.07 -0.05,-0.11 -0.18,-0.28 -0.42,-0.53 -0.53,-0.83 -0.11,-0.29 -0.15,-0.64 -0.11,-0.96 0.1,-0.8 -0.02,-0.94 -0.8,-0.82 0,0.94 0.03,1.87 -0.02,2.81 -0.02,0.33 -0.26,0.64 -0.4,0.95 -0.34,0.6 -0.78,1.05 -1.53,1.05 -0.19,0 -0.38,0 -0.57,0 0.13,0.1 0.27,0.3 0.39,0.3 0.5,-0.03 1.04,0.03 1.45,-0.39 0.09,-0.09 0.29,-0.09 0.44,-0.11 0.37,-0.06 0.75,-0.2 1.11,-0.16 0.5,0.06 0.98,0.24 1.46,0.4 0.08,0.03 0.15,0.21 0.14,0.32 -0.04,0.53 -0.13,1.05 -0.14,1.58 -0.01,0.69 0.05,1.38 0.06,2.07 0.01,0.4 0.12,0.87 -0.49,0.98 -0.05,0.01 -0.12,0.18 -0.11,0.26 0.01,0.07 0.12,0.13 0.19,0.19 0.14,0.12 0.37,0.22 0.39,0.36 0.19,1.11 0.18,1.11 1.38,1.11 0.07,-0.1 0.14,-0.21 0.21,-0.31 -0.07,-0.29 -0.19,-0.58 -0.2,-0.88 -0.03,-0.62 -0.02,-1.25 -0.01,-1.88 0.01,-0.46 -0.15,-0.84 -0.31,-1.27 -0.27,-0.72 -0.76,-1.44 -0.52,-2.28 0.06,-0.23 0.16,-0.45 0.24,-0.68 -0.07,-0.23 -0.16,-0.48 -0.24,-0.73 -0.07,-0.01 -0.14,-0.02 -0.21,-0.03 -0.06,-0.06 -0.13,-0.13 -0.19,-0.19 -0.08,-0.08 -0.15,-0.16 -0.23,-0.23 -0.04,-0.03 -0.08,-0.05 -0.11,-0.08 -0.14,-0.08 -0.27,-0.15 -0.41,-0.23 -0.03,-0.06 -0.07,-0.08 -0.11,-0.11 z m 4.17,38.03 c -0.32,0.05 -0.4,-0.11 -0.41,-0.41 -0.01,-0.63 -0.06,-1.26 -0.1,-1.89 -0.32,0.17 -0.61,0.84 -0.57,1.27 0.12,1.15 0.32,2.3 0.31,3.45 -0.01,0.99 -0.28,1.98 -0.43,2.97 -0.03,0.2 -0.07,0.43 0,0.61 0.37,1.05 0.38,2.12 0.29,3.21 -0.01,0.08 0,0.17 0.02,0.26 0.14,0.76 -0.02,0.96 -0.8,0.98 -1.63,0.04 -3.26,0.07 -4.89,0.12 -0.17,0.01 -0.34,0.13 -0.51,0.2 2.33,0.04 4.65,0.07 6.98,0.11 0.01,-0.04 0.03,-0.07 0.04,-0.11 0.03,-2.51 0.07,-5.02 0.1,-7.52 -0.01,-1.09 -0.02,-2.17 -0.03,-3.25 z m -2.93,-41.46 c 0.28,0.18 0.57,0.33 0.86,0.5 -0.24,-0.31 -0.51,-0.59 -0.71,-0.92 -0.21,-0.34 -0.39,-0.71 -0.52,-1.09 -0.18,-0.5 -0.57,-0.67 -1.04,-0.7 -0.38,-0.02 -0.76,0.02 -1.14,-0.01 -0.94,-0.08 -1.88,-0.22 -2.82,-0.27 -0.56,-0.03 -1.13,0.04 -1.7,0.07 0.14,0.21 0.28,0.42 0.42,0.62 0.32,0.08 0.49,0.26 0.41,0.61 0.06,0.02 0.14,0.02 0.19,0.06 0.45,0.32 0.68,0.16 0.76,-0.34 -0.11,-0.23 -0.17,-0.52 0.2,-0.4 0.38,0.11 0.71,0.39 1.05,0.6 0.59,0.04 1.18,0.07 1.77,0.11 0.18,-0.38 0.66,-0.6 0.96,-0.37 0.26,0.2 0.71,0.42 0.4,0.91 0.17,0.25 0.35,0.49 0.52,0.74 0.05,-0.34 0.21,-0.24 0.39,-0.12 z m 11.44,-3.75 c -0.2,-0.45 -0.59,-0.29 -0.92,-0.36 -0.21,-0.05 -0.38,-0.25 -0.57,-0.39 -0.61,0 -1.18,0.08 -1.57,0.63 0,0.17 0,0.35 0,0.46 -0.55,0.2 -1.05,0.39 -1.56,0.57 0.01,0.08 0.02,0.15 0.04,0.23 0.15,-0.01 0.32,0.02 0.43,-0.04 0.45,-0.25 0.85,-0.36 1.25,0.09 0.09,0.1 0.32,0.12 0.48,0.13 0.59,0.01 1.18,0.01 1.83,0.01 0.02,0.19 0.03,0.36 0.04,0.52 0,0.03 0.01,0.07 0,0.1 0.03,0.01 0.05,0.01 0.08,0.01 0.28,-0.22 0.79,-0.14 0.86,-0.64 -0.3,-0.42 -0.15,-0.83 0,-1.25 -0.13,-0.02 -0.36,0 -0.39,-0.07 z m 1.02,2.56 c -0.21,0.25 -0.41,0.5 -0.62,0.76 -0.56,0.52 -0.56,0.52 -1.06,0.04 -0.13,-0.13 -0.27,-0.25 -0.41,-0.38 -0.07,-0.04 -0.14,-0.07 -0.21,-0.11 -0.34,0.01 -0.69,0.01 -1.03,0.02 -0.08,0.04 -0.15,0.08 -0.23,0.13 0.14,0.07 0.28,0.14 0.43,0.21 0.14,0.04 0.28,0.07 0.42,0.11 0.1,0.03 0.21,0.05 0.31,0.08 v 0 c 0.11,0.07 0.23,0.15 0.34,0.22 0.27,0.22 0.43,0.33 0.02,0.67 -0.66,0.53 -1.3,1.14 -1.5,2.04 0.17,-0.1 0.35,-0.18 0.5,-0.3 0.25,-0.19 0.61,-0.15 0.6,0.13 -0.01,0.63 0.49,0.69 0.88,0.9 -0.06,-0.1 -0.1,-0.22 -0.17,-0.31 -0.36,-0.45 -0.39,-0.93 -0.04,-1.36 0.32,-0.4 0.74,-0.72 1.14,-1.05 0.32,-0.27 0.82,-0.37 0.76,-0.94 -0.05,-0.29 -0.09,-0.57 -0.13,-0.86 z m -11.5,13.81 c 0.07,0.07 0.14,0.14 0.21,0.21 0.04,0.66 0.07,1.32 0.11,1.98 0.43,0.43 0.37,1 0.41,1.53 0.02,0.26 0,0.51 0,0.77 0,0.38 0,0.77 0.01,1.15 0.14,0.93 0.31,1.85 0.4,2.78 0.06,0.6 0.01,1.21 0.01,1.82 0,0.31 0,0.63 0,0.94 0.17,0.03 0.34,0.07 0.5,0.1 -0.03,-0.56 -0.05,-1.13 -0.09,-1.69 -0.1,-1.5 -0.19,-3.01 -0.32,-4.51 -0.11,-1.25 -0.26,-2.51 -0.42,-3.75 -0.06,-0.48 -0.2,-0.95 -0.31,-1.43 -0.1,-0.17 -0.2,-0.35 -0.3,-0.52 -0.04,0 -0.08,0 -0.11,0 -0.07,0.1 -0.14,0.21 -0.21,0.31 0.04,0.1 0.08,0.2 0.11,0.31 z m 6.88,-16.4 c -0.39,0.1 -0.84,0.11 -1.14,0.33 -0.57,0.41 -1.04,0.95 -1.55,1.43 0,0.05 -0.01,0.11 -0.01,0.16 0.21,0.02 0.41,0.07 0.62,0.06 0.46,-0.02 0.92,-0.06 1.38,-0.09 0.06,-0.04 0.12,-0.07 0.17,-0.11 0.45,-0.35 0.82,-0.46 1.37,-0.04 0.31,0.24 0.91,0.11 1.39,0.14 0.14,0 0.28,0 0.42,0 0.1,0 0.21,0 0.31,0 0.03,-0.01 0.07,-0.01 0.1,-0.02 -0.01,-0.16 -0.03,-0.33 -0.04,-0.52 -0.65,0 -1.24,0.01 -1.83,-0.01 -0.16,0 -0.39,-0.02 -0.48,-0.13 -0.4,-0.45 -0.81,-0.34 -1.25,-0.09 -0.12,0.06 -0.29,0.03 -0.43,0.04 -0.01,-0.08 -0.02,-0.15 -0.04,-0.23 0.5,-0.18 1.01,-0.37 1.56,-0.57 0,-0.12 0,-0.29 0,-0.46 -0.19,0.05 -0.37,0.07 -0.55,0.11 z m -5.12,29.36 c -0.76,-0.08 -0.58,-0.67 -0.61,-1.15 -0.07,0.15 -0.21,0.31 -0.2,0.45 0.08,1.34 0.18,2.68 0.28,4.01 0,0.02 0.02,0.04 0.01,0.05 -0.43,0.78 0.02,1.53 0.06,2.3 0.01,0.1 0.11,0.19 0.16,0.29 0.2,-0.19 -0.01,-0.7 0.5,-0.63 -0.02,-0.56 -0.05,-1.12 -0.07,-1.67 -0.03,-1.21 -0.08,-2.43 -0.13,-3.65 z m 9.15,-19.86 c -0.01,0.19 -0.04,0.4 -0.14,0.54 -0.06,0.07 -0.34,0.06 -0.45,-0.01 -0.53,-0.36 -0.98,-0.81 -1.19,-1.43 -0.15,-0.42 -0.43,-0.55 -0.83,-0.55 -0.56,0 -1.13,-0.01 -1.69,0.01 -0.15,0.01 -0.29,0.13 -0.43,0.2 0.14,0.07 0.29,0.14 0.43,0.21 0.27,0 0.55,0.01 0.82,0.01 0.24,0.03 0.49,0.07 0.73,0.1 0.73,-0.15 0.85,0.5 1.16,0.89 0.09,0.15 0.18,0.3 0.27,0.45 0.21,0.47 0.51,0.8 1.07,0.75 0.24,-0.04 0.49,-0.07 0.73,-0.11 0.25,-0.21 0.49,-0.42 0.74,-0.63 -0.18,-0.42 -0.35,-0.85 -0.53,-1.27 -0.24,0.04 -0.48,0.07 -0.73,0.11 0.02,0.24 0.05,0.49 0.04,0.73 z m -8,-6.06 c -0.79,0 -1.7,-0.86 -1.76,-1.67 -0.05,0.17 -0.16,0.34 -0.15,0.5 0.02,0.32 0.12,0.64 0.15,0.97 0.03,0.45 0.25,0.65 0.7,0.59 0.14,-0.02 0.27,-0.06 0.41,-0.07 0.84,-0.03 1.11,0.3 0.91,1.15 -0.02,0.07 -0.01,0.14 -0.02,0.21 0.35,0 0.7,0 1.06,0 0.1,-0.08 0.19,-0.16 0.29,-0.24 0,-0.36 0.13,-0.79 -0.02,-1.07 -0.18,-0.32 -0.6,-0.51 -0.91,-0.76 -0.04,0.44 -0.37,0.39 -0.66,0.39 z m -2.59,12.3 c 0.1,-0.1 0.2,-0.19 0.31,-0.29 -0.07,-0.38 -0.15,-0.76 -0.21,-1.13 -0.04,-0.21 -0.05,-0.43 -0.08,-0.64 -0.04,-0.45 -0.07,-0.9 -0.11,-1.36 -0.17,-0.42 -0.35,-0.84 -0.52,-1.26 -0.38,-0.81 -0.13,-1.58 0.1,-2.36 0.05,-0.17 -0.02,-0.37 -0.03,-0.56 -0.24,-0.03 -0.48,-0.06 -0.72,-0.09 0.08,0.25 0.17,0.5 0.24,0.73 -0.08,0.23 -0.17,0.45 -0.24,0.68 -0.24,0.85 0.25,1.57 0.52,2.28 0.16,0.43 0.32,0.82 0.31,1.27 -0.01,0.63 -0.02,1.25 0.01,1.88 0.01,0.3 0.13,0.58 0.2,0.88 0.04,0 0.08,0 0.11,0 0.05,0 0.08,-0.02 0.11,-0.03 z m -8.47,-19.01 c -0.11,0.03 -0.23,0.05 -0.34,0.1 -0.57,0.27 -1.05,0.92 -1.81,0.45 -0.02,-0.02 -0.07,0 -0.1,0 -0.52,0.07 -1.04,0.13 -1.56,0.2 -0.22,0.03 -0.47,0 -0.66,0.09 -0.5,0.23 -0.98,0.5 -1.47,0.75 -0.01,0.06 -0.01,0.13 -0.02,0.19 0.12,0.04 0.26,0.13 0.36,0.11 0.31,-0.08 0.6,-0.2 0.9,-0.31 0.31,-0.07 0.63,-0.14 0.94,-0.21 0.14,-0.03 0.28,-0.07 0.42,-0.1 0.24,0 0.49,0 0.73,0 0.16,-0.06 0.37,-0.21 0.47,-0.16 0.59,0.29 1,-0.12 1.48,-0.3 0.46,-0.17 0.95,-0.34 1.42,-0.36 0.5,-0.02 0.7,-0.18 0.7,-0.65 -0.17,0.06 -0.35,0.13 -0.52,0.19 -0.21,0 -0.42,0 -0.63,0 -0.1,0.02 -0.2,0.01 -0.31,0.01 z m 10.14,15.3 c 0.14,-0.05 0.27,-0.09 0.41,-0.14 0.36,-0.26 0.75,-0.49 1.07,-0.78 0.25,-0.23 0.39,-0.13 0.54,0.07 0.21,0.27 0.4,0.55 0.6,0.83 0.14,0.1 0.28,0.21 0.42,0.31 0.21,0.03 0.41,0.06 0.62,0.1 0.21,-0.28 0.43,-0.55 0.64,-0.83 -0.29,-0.38 -0.92,-0.43 -0.98,-1.04 -0.11,0.03 -0.27,0.03 -0.33,0.11 -0.32,0.39 -0.6,0.35 -0.97,0.04 -0.13,-0.11 -0.45,-0.08 -0.64,0 -0.41,0.17 -0.81,0.4 -1.18,0.65 -0.33,0.22 -0.62,0.5 -0.93,0.75 0.24,-0.02 0.49,-0.05 0.73,-0.07 z m 16.62,-9.23 c -0.31,-0.33 0.13,-0.34 0.22,-0.5 0.01,-0.09 -0.01,-0.25 0.04,-0.27 0.24,-0.13 0.5,-0.31 0.75,-0.31 0.5,0.01 0.83,-0.19 1.1,-0.58 -0.11,-0.1 -0.22,-0.2 -0.33,-0.31 -0.58,0.03 -1.16,0.1 -1.73,0.06 -0.14,-0.01 -0.24,-0.4 -0.36,-0.62 -0.43,-0.23 -0.85,-0.05 -1.27,0.04 -0.16,0.03 -0.33,-0.01 -0.49,-0.01 -0.18,0.07 -0.35,0.15 -0.53,0.22 0.13,0.13 0.24,0.35 0.39,0.37 0.47,0.08 0.96,0.07 1.43,0.13 0.47,0.05 0.93,0.14 1.4,0.21 0,0.06 0,0.12 0,0.18 -0.13,0.05 -0.26,0.13 -0.4,0.16 -0.9,0.17 -0.37,0.89 -0.49,1.34 -0.04,0.14 0.25,0.36 0.39,0.54 -0.05,-0.22 -0.09,-0.43 -0.12,-0.65 z m -6.07,6.2 c 0.06,-0.15 0.01,-0.37 0.11,-0.47 0.65,-0.66 1.31,-1.32 2,-1.94 0.29,-0.26 0.67,-0.43 1.02,-0.64 0.05,-0.12 0.1,-0.24 0.21,-0.49 -0.52,0.17 -0.91,0.3 -1.31,0.43 0.02,-0.28 0.03,-0.46 0.04,-0.65 -0.18,0.16 -0.25,0.32 -0.33,0.49 -0.55,1.29 -1.6,2.12 -2.68,2.93 0.18,0.42 0.35,0.85 0.53,1.27 0.14,-0.31 0.29,-0.61 0.41,-0.93 z m -9.94,-8.44 c 0.15,-0.15 0.29,-0.3 0.44,-0.45 -0.07,-0.37 0.28,-0.71 0.82,-0.86 0.36,-0.1 0.71,-0.27 1.06,-0.41 -0.75,-0.05 -1.52,-0.18 -2.21,0.26 -0.45,0.29 -0.92,0.57 -1.31,0.92 -0.34,0.31 -0.43,0.76 -0.25,1.22 0.21,-0.07 0.43,-0.14 0.64,-0.21 0.03,0 0.06,-0.01 0.09,-0.02 0.04,-0.46 0.34,-0.51 0.72,-0.45 z m 3.78,6.13 c -0.21,0.03 -0.42,0.05 -0.63,0.08 -1.09,0.34 -2.17,0.68 -3.26,1.01 -0.37,0.11 -0.75,0.19 -1.13,0.28 0,0.13 0,0.26 0,0.4 0.55,-0.07 1.13,-0.04 1.63,-0.23 1.4,-0.53 2.74,-1.19 4.3,-1.03 0.31,0.03 0.45,-0.21 0.44,-0.52 -0.45,0 -0.9,0.01 -1.35,0.01 z m -1.26,-10.35 v 0 c 0.22,0 0.46,0.04 0.67,-0.01 0.81,-0.18 1.43,0.31 2.1,0.59 0.29,0.12 0.41,0.4 0.09,0.69 -0.09,0.08 -0.1,0.26 -0.14,0.4 0.08,0.07 0.16,0.15 0.24,0.22 0.43,-0.41 0.86,-0.81 1.32,-1.25 -0.35,-0.23 -0.58,-0.4 -0.83,-0.53 -1.12,-0.58 -2.33,-0.57 -3.55,-0.51 0.03,0.13 0.07,0.26 0.1,0.4 z m -7.52,9.3 c -0.03,-0.04 -0.06,-0.07 -0.08,-0.11 0.03,-0.7 0.07,-1.39 0.1,-2.09 -0.01,-0.07 -0.02,-0.14 -0.03,-0.21 -0.17,0.04 -0.34,0.07 -0.51,0.11 -0.39,0.13 -0.77,0.27 -1.16,0.4 0.2,0.17 0.44,0.33 0.21,0.64 0.78,-0.12 0.9,0.03 0.8,0.82 -0.04,0.31 0,0.66 0.11,0.96 0.11,0.3 0.35,0.56 0.53,0.83 0.01,-0.44 0.02,-0.9 0.03,-1.35 z m 5.21,-9.45 c -0.55,0.06 -1.11,0.12 -1.66,0.17 -0.03,-0.01 -0.06,-0.03 -0.1,-0.04 -0.46,-0.06 -0.93,-0.22 -1.36,0.11 0,0.11 0.01,0.22 0.01,0.32 0.24,0 0.49,0 0.73,0 0.52,0 1.04,0.03 1.56,-0.01 0.54,-0.04 1.08,-0.16 1.62,-0.22 0.15,-0.02 0.32,0.01 0.47,0.02 0.35,-0.07 0.7,-0.14 1.04,-0.21 -0.04,-0.13 -0.07,-0.27 -0.11,-0.4 -0.73,0.09 -1.47,0.18 -2.2,0.26 z m 13,3.81 c -0.26,-0.06 -0.59,0.05 -0.81,-0.07 -1.1,-0.57 -2.18,-0.53 -3.08,0.17 0.04,0.1 0.07,0.2 0.11,0.3 0.58,-0.36 1.23,-0.33 1.88,-0.31 0.22,0 0.44,0.02 0.66,0 0.33,-0.03 0.42,0.13 0.39,0.42 0.35,0 0.7,0 1.04,0 0.18,-0.07 0.35,-0.15 0.53,-0.22 -0.25,-0.09 -0.47,-0.23 -0.72,-0.29 z m -8.27,-1.94 c -0.43,0.35 -0.92,0.4 -1.45,0.37 -0.11,-0.01 -0.23,0.06 -0.34,0.09 -0.28,0.11 -0.56,0.21 -0.84,0.32 -0.35,0.14 -0.7,0.31 -1.06,0.41 -0.54,0.15 -0.89,0.49 -0.82,0.86 0.31,-0.31 0.65,-0.52 1.13,-0.43 0.14,0.03 0.3,-0.11 0.45,-0.17 0.43,-0.18 0.85,-0.45 1.3,-0.54 0.76,-0.15 1.5,-0.32 2.16,-0.74 -0.08,-0.07 -0.16,-0.15 -0.24,-0.22 -0.09,0.02 -0.22,0 -0.29,0.05 z m 12.01,5.39 c 0.14,0.1 0.28,0.21 0.42,0.31 0.21,0.1 0.42,0.21 0.63,0.31 0.24,0.07 0.49,0.14 0.73,0.21 0.07,0 0.14,0 0.21,0 0.19,-0.15 0.37,-0.3 0.56,-0.43 0.27,-0.19 0.35,-0.38 0.05,-0.61 -0.54,0.55 -1.56,0.6 -2.08,0.02 -0.29,-0.33 -0.58,-0.46 -0.99,-0.42 -0.15,0.01 -0.31,-0.02 -0.47,-0.03 0.03,0.21 0.07,0.43 0.1,0.64 0.28,-0.01 0.56,0 0.84,0 z m -49.96,1.98 c -0.02,0.05 -0.04,0.09 -0.05,0.14 -0.02,-0.05 -0.04,-0.09 -0.05,-0.14 -0.1,0.03 -0.19,0.07 -0.29,0.1 -0.25,0.27 -0.51,0.53 -0.76,0.81 -0.06,0.07 -0.09,0.18 -0.13,0.27 -0.21,0.47 0.3,0.4 0.45,0.59 0.07,0 0.13,0.01 0.2,0.01 0,-0.32 0.14,-0.38 0.42,-0.26 0.13,0.06 0.28,0.1 0.42,0.14 -0.07,-0.29 -0.41,-0.58 -0.01,-0.87 0.34,-0.24 0.38,-0.55 0.22,-0.91 -0.14,0.05 -0.28,0.08 -0.42,0.12 z m 33.26,0.28 c 0.44,0.06 0.89,0.14 1.22,-0.28 0.04,-0.1 0.08,-0.21 0.12,-0.31 -0.35,0 -0.7,0 -1.06,0 -0.21,0 -0.42,0 -0.63,0 -0.55,0.02 -1.09,0.02 -1.55,-0.38 -0.15,-0.13 -0.42,-0.1 -0.64,-0.14 0,0.11 0,0.22 -0.01,0.33 0.21,0.07 0.42,0.15 0.63,0.22 0.12,0.1 0.24,0.21 0.36,0.31 0,0 0.01,0.01 0.01,0.01 0.36,0.07 0.73,0.13 1.09,0.2 0.16,0 0.31,0.02 0.46,0.04 z m 18.05,-3.42 c 0.13,0 0.33,-0.06 0.39,-0.16 0.28,-0.48 -0.02,-0.97 -0.58,-0.98 -0.27,0.38 -0.6,0.59 -1.1,0.58 -0.25,-0.01 -0.51,0.18 -0.75,0.31 -0.05,0.03 -0.03,0.18 -0.04,0.27 0.7,-0.01 1.39,-0.01 2.08,-0.02 z m -20.25,6.07 c -0.56,0.6 -0.57,1.34 -0.5,2.09 0.01,0.13 0.04,0.27 0.06,0.4 0.17,0.31 0.35,0.63 0.52,0.94 0,-0.75 0.04,-1.51 -0.01,-2.26 -0.04,-0.55 0.16,-0.88 0.64,-1.09 0,-0.13 0,-0.26 0,-0.4 -0.23,0.12 -0.47,0.22 -0.71,0.32 z m 0.5,-6.59 c 0.06,0.81 0.97,1.67 1.76,1.67 0.29,0 0.62,0.05 0.64,-0.39 -0.18,-0.11 -0.36,-0.22 -0.56,-0.34 -0.4,0.31 -0.72,0.29 -0.91,-0.23 -0.03,-0.07 -0.11,-0.16 -0.18,-0.17 -0.48,-0.04 -0.33,-0.41 -0.32,-0.66 0.01,-0.21 0.13,-0.4 0.2,-0.61 -0.21,0.07 -0.43,0.14 -0.64,0.21 0.01,0.17 0.01,0.35 0.01,0.52 z m -29.68,3.04 c 0.33,-0.1 0.49,-0.29 0.42,-0.64 -0.51,0.11 -1.02,0.18 -1.52,0.33 -0.46,0.14 -1.04,0.06 -1.31,0.62 0,0.04 0,0.07 0,0.11 0.01,0.03 0.02,0.07 0.03,0.1 0.03,0.03 0.05,0.07 0.08,0.1 0.01,0.03 0.02,0.07 0.03,0.1 0.1,-0.03 0.19,-0.07 0.29,-0.1 0.04,0 0.07,0 0.11,0 0.14,-0.03 0.28,-0.07 0.42,-0.1 0.47,-0.18 0.96,-0.37 1.45,-0.52 z m 34.91,7.82 c 0.07,0.01 0.14,0.02 0.21,0.03 0.1,0 0.21,0 0.31,0 0.1,-0.01 0.2,-0.02 0.31,-0.04 0.24,-0.27 0.49,-0.54 0.73,-0.81 -0.03,-0.03 -0.06,-0.07 -0.1,-0.1 -0.52,-0.04 -1.03,-0.08 -1.55,-0.12 -0.21,0.28 -0.43,0.55 -0.64,0.83 0.24,0.07 0.49,0.14 0.73,0.21 z m 4.81,-12.53 c 0.14,0 0.28,0 0.41,0 l 0.02,-0.02 c -0.01,-0.45 -0.33,-0.48 -0.67,-0.51 -0.18,-0.02 -0.36,-0.05 -0.53,-0.1 -0.17,-0.05 -0.33,-0.18 -0.5,-0.2 -0.31,-0.03 -0.62,0 -0.93,0.01 0.19,0.13 0.36,0.34 0.57,0.39 0.33,0.07 0.72,-0.09 0.92,0.36 0.03,0.07 0.26,0.05 0.39,0.07 0.11,0 0.21,0 0.32,0 z m -6.25,9.5 c -0.11,0.32 -0.04,0.59 0.4,0.54 0.03,-0.1 0.08,-0.21 0.09,-0.32 0.03,-0.61 0.27,-0.94 0.84,-1.16 0.12,-0.05 0.22,-0.13 0.33,-0.2 -0.14,-0.07 -0.29,-0.14 -0.43,-0.21 -0.67,0.21 -1.01,0.73 -1.23,1.35 z m -3.28,18.09 c -0.17,-0.03 -0.34,-0.07 -0.5,-0.1 0,0.21 0,0.42 0,0.63 0.03,0.48 -0.15,1.06 0.61,1.15 -0.04,-0.57 -0.08,-1.13 -0.11,-1.68 z m 15.17,-21.52 c 0.07,-0.01 0.14,-0.03 0.21,-0.04 -0.05,-0.16 -0.08,-0.32 -0.15,-0.47 -0.19,-0.39 -0.39,-0.78 -0.59,-1.17 -0.1,-0.07 -0.21,-0.14 -0.31,-0.21 l -0.02,0.02 c 0.04,0.32 0.07,0.63 0.13,0.95 0.05,0.27 0.14,0.54 0.21,0.81 0.17,0.03 0.35,0.07 0.52,0.11 z m -16.72,-1.89 c -0.07,0 -0.14,0 -0.21,0 -0.29,-0.17 -0.58,-0.32 -0.86,-0.5 -0.18,-0.12 -0.34,-0.21 -0.4,0.1 0.1,0.09 0.2,0.19 0.3,0.28 0.13,0.15 0.25,0.3 0.38,0.45 0.02,0 0.04,0.01 0.05,0.03 0.15,0.09 0.29,0.17 0.44,0.26 0.17,0.01 0.34,0.01 0.51,0.02 0,-0.11 0,-0.22 0.01,-0.33 -0.08,-0.1 -0.15,-0.21 -0.22,-0.31 z m 19.64,-3.75 c -0.48,-0.11 -0.97,-0.17 -1.46,-0.25 0.12,0.22 0.23,0.61 0.36,0.62 0.57,0.04 1.15,-0.03 1.73,-0.06 -0.21,-0.11 -0.41,-0.26 -0.63,-0.31 z m -22.78,2.19 c 0.28,0.06 0.56,0.13 0.84,0.19 0.1,0.08 0.2,0.16 0.31,0.23 0.3,-0.49 -0.15,-0.71 -0.4,-0.91 -0.3,-0.23 -0.77,-0.01 -0.96,0.37 0.07,0.04 0.14,0.08 0.21,0.12 z m 10.87,0.33 c 0.03,-0.01 0.06,-0.01 0.1,0 0.08,-0.04 0.15,-0.08 0.23,-0.13 -0.39,-0.61 -1.04,-0.59 -1.73,-0.78 0.14,0.2 0.2,0.28 0.26,0.36 0.38,0.18 0.76,0.36 1.14,0.55 z m -5.24,-2.49 c -0.38,-0.06 -0.68,-0.01 -0.71,0.46 0.23,-0.15 0.47,-0.3 0.71,-0.46 z m 9.01,-0.47 -0.02,0.02 c 0,0.1 0,0.21 0,0.31 0.14,0 0.28,0 0.42,0 -0.04,-0.1 -0.07,-0.2 -0.11,-0.3 -0.08,-0.02 -0.18,-0.02 -0.29,-0.03 z m -42.62,5.06 c 0.03,0.02 0.05,0.05 0.08,0.07 0,-0.04 0,-0.07 0,-0.11 -0.03,0.02 -0.05,0.03 -0.08,0.04 z m 0.18,0.28 c -0.03,-0.03 -0.05,-0.07 -0.08,-0.1 0.03,0.03 0.06,0.06 0.08,0.1 z m 25.71,50.57 c -0.1,0 -0.21,0 -0.31,0 -0.5,0 -1,0.01 -1.51,0 -0.64,0 -0.69,-0.05 -0.69,-0.67 0,-0.43 -0.01,-0.87 0,-1.3 0.01,-0.31 -0.08,-0.51 -0.41,-0.54 -0.05,0.35 -0.09,0.7 -0.14,1.04 0.01,0.66 0.03,1.32 0.04,1.97 2.08,0 4.17,0.01 6.25,0.01 0.24,0 0.49,0.01 0.73,0.02 0.07,0 0.14,0 0.21,0 0.14,0.03 0.28,0.05 0.42,0.08 0.77,-0.03 1.53,-0.05 2.3,-0.08 0.03,-0.14 0.06,-0.29 0.08,-0.43 -2.31,-0.02 -4.64,-0.06 -6.97,-0.1 z m -15.26,-52.55 c 0.03,0.06 0.07,0.17 0.1,0.17 0.66,-0.12 0.89,0.51 1.28,0.8 0.5,0.38 0.93,0.75 1.6,0.7 0.42,-0.03 0.59,0.18 0.59,0.59 0,0.22 0.06,0.46 0.14,0.67 0.09,0.22 0.25,0.42 0.38,0.63 0.39,-0.2 0.09,-0.42 0.04,-0.65 -0.04,-0.2 -0.07,-0.45 0.02,-0.61 0.12,-0.2 0.37,-0.32 0.56,-0.48 0.16,-0.14 0.32,-0.28 0.53,-0.48 -0.86,-0.31 -1.58,-0.52 -2.4,-0.33 -0.62,0.14 -1.2,-0.05 -1.49,-0.71 -0.03,-0.03 -0.05,-0.05 -0.08,-0.08 -0.34,-0.16 -0.69,-0.31 -1.03,-0.47 -0.09,0.09 -0.16,0.17 -0.24,0.25 z m -4.08,4.36 c 0.21,0.05 0.42,0.1 0.64,0.15 0.04,0.03 0.07,0.05 0.11,0.08 v 0 c 0.03,0 0.07,0.01 0.1,0.02 0.14,0.06 0.28,0.12 0.42,0.18 0.03,0.01 0.07,0.01 0.1,0.02 0.1,0.06 0.2,0.13 0.3,0.19 -0.19,0.29 -0.39,0.57 -0.64,0.95 0.19,0.03 0.36,0.06 0.54,0.09 0.07,-0.04 0.14,-0.07 0.21,-0.11 0.07,-0.07 0.14,-0.14 0.21,-0.21 0.18,-0.13 0.1,-0.6 0.53,-0.42 0.1,0.01 0.21,0.02 0.31,0.03 0.24,0.07 0.48,0.13 0.72,0.2 0.1,-0.03 0.2,-0.06 0.3,-0.09 0.01,-0.06 0.02,-0.11 0.03,-0.17 -0.25,-0.09 -0.5,-0.19 -0.76,-0.26 -0.21,-0.06 -0.46,-0.03 -0.65,-0.12 -0.75,-0.37 -1.49,-0.78 -2.17,-1.14 -0.33,0.17 -0.59,0.28 -0.81,0.44 -0.1,0.08 -0.12,0.26 -0.18,0.39 0.04,0 0.09,0 0.13,0.01 0.18,-0.08 0.37,-0.15 0.56,-0.23 z m 5.34,2.55 c 0.07,0 0.14,0 0.21,0 0.24,-0.07 0.49,-0.13 0.73,-0.2 0.07,-0.05 0.14,-0.09 0.21,-0.14 0.04,-0.1 0.07,-0.2 0.11,-0.31 -0.14,-0.21 -0.27,-0.42 -0.41,-0.63 -0.14,0.2 -0.24,0.46 -0.42,0.59 -0.21,0.15 -0.52,0.15 -0.76,0.28 -0.34,0.18 -0.55,0.17 -0.76,-0.19 -0.12,-0.2 -0.38,-0.31 -0.58,-0.47 -0.1,0.14 -0.2,0.28 -0.29,0.42 -0.01,0.07 -0.02,0.14 -0.03,0.21 0.11,0.1 0.22,0.21 0.34,0.31 0.17,0.08 0.35,0.15 0.52,0.23 0.17,0.03 0.35,0.07 0.52,0.1 0.1,-0.04 0.21,-0.07 0.31,-0.11 0.09,-0.02 0.19,-0.06 0.3,-0.09 z m 1.97,-1.49 c -0.16,0 -0.31,-0.14 -0.47,-0.22 -0.14,-0.06 -0.32,-0.19 -0.43,-0.15 -0.11,0.04 -0.16,0.25 -0.23,0.39 0.31,0.18 0.63,0.36 0.94,0.54 0.17,0 0.35,0 0.52,0 0.07,0 0.14,0 0.21,0 0.21,0 0.42,0 0.63,0 0.39,-0.05 0.83,0 1.09,-0.5 -0.19,-0.16 -0.37,-0.31 -0.56,-0.46 -0.48,0.49 -1.1,0.4 -1.7,0.4 z m -7.81,-5.73 c -0.19,0.37 -0.51,0.34 -0.85,0.29 -0.14,0 -0.28,0 -0.42,0.01 -0.1,0.01 -0.21,0.02 -0.31,0.03 -0.07,0.06 -0.14,0.13 -0.22,0.19 0.12,0.07 0.22,0.18 0.35,0.21 0.84,0.2 1.56,-0.28 2.34,-0.44 0.04,-0.01 0.03,-0.24 0.04,-0.37 -0.17,-0.01 -0.35,-0.02 -0.52,-0.04 -0.14,0.03 -0.28,0.07 -0.41,0.12 z m 3.5,0.11 c 0.35,0.11 0.72,0.14 1.08,0.2 0.07,-0.08 0.15,-0.16 0.22,-0.24 -0.17,-0.29 -0.39,-0.45 -0.74,-0.3 -0.28,-0.02 -0.56,-0.05 -0.83,-0.07 0.09,0.14 0.15,0.37 0.27,0.41 z m 32.96,-1.6 c 0.42,0 0.53,0.3 0.61,0.64 0.4,0.21 0.42,0.56 0.34,0.95 0.17,0.18 0.35,0.35 0.52,0.53 0.1,0.04 0.21,0.07 0.31,0.11 -0.14,-0.42 -0.3,-0.84 -0.41,-1.27 -0.06,-0.23 0,-0.48 -0.01,-0.72 -0.02,-0.4 -1.14,-0.97 -1.46,-0.74 -0.06,0.04 -0.07,0.15 -0.1,0.23 0.06,0.07 0.13,0.17 0.2,0.27 z m 8.39,4.59 c -0.11,0.09 -0.3,0.07 -0.43,0.14 -0.49,0.23 -0.98,0.47 -1.48,0.71 0.03,0.01 0.07,0.02 0.1,0.03 0.1,0.04 0.21,0.07 0.31,0.11 0.1,-0.01 0.2,-0.02 0.3,-0.02 0.04,-0.03 0.08,-0.06 0.12,-0.08 0.04,-0.01 0.07,-0.02 0.11,-0.02 0.07,-0.04 0.14,-0.08 0.2,-0.11 0.31,-0.14 0.63,-0.27 0.94,-0.41 0.49,0.03 0.98,0.06 1.46,0.08 -0.03,-0.13 -0.07,-0.26 -0.1,-0.39 -0.5,-0.39 -1,-0.47 -1.53,-0.04 z m -7.14,-2.16 c 0.14,0.12 0.28,0.24 0.42,0.36 0.54,0.5 1.46,0.5 2.06,0.06 0.2,-0.14 0.49,-0.14 0.74,-0.21 l 0.02,-0.02 c 0,-0.14 0,-0.28 -0.01,-0.41 -0.14,0 -0.28,0 -0.42,0 -0.28,0.14 -0.56,0.28 -0.84,0.42 -0.5,-0.02 -1.04,0.11 -1.46,-0.31 0,-0.03 0,-0.07 0,-0.1 -0.1,-0.04 -0.21,-0.07 -0.31,-0.11 -0.06,0.11 -0.13,0.21 -0.2,0.32 z m -1.88,-2.73 c -0.08,0.5 -0.58,0.42 -0.86,0.64 0.11,0.28 0.23,0.56 0.34,0.84 0.24,-0.23 0.48,-0.46 0.71,-0.7 0.15,-0.15 0.29,-0.32 0.44,-0.48 -0.07,-0.1 -0.14,-0.2 -0.21,-0.3 -0.14,0 -0.28,0 -0.42,0 z m 3.97,2.51 c -0.52,0.03 -1.04,0.07 -1.57,0.1 0.42,0.42 0.96,0.29 1.46,0.31 0.04,-0.13 0.08,-0.27 0.11,-0.41 z m 0.11,-3.34 c 0.03,-0.29 -0.06,-0.45 -0.39,-0.42 -0.22,0.02 -0.44,0 -0.66,0 0.35,0.14 0.7,0.28 1.05,0.42 z m 0.63,3.34 c -0.24,-0.33 -0.49,-0.08 -0.73,0 -0.03,0.14 -0.07,0.28 -0.1,0.41 0.27,-0.13 0.55,-0.27 0.83,-0.41 z m 0.73,0.63 c 0.17,-0.35 0.24,-0.65 -0.32,-0.63 0,0.14 0,0.28 0.01,0.41 0.1,0.08 0.2,0.15 0.31,0.22 z m 5.01,-0.21 c -0.24,-0.07 -0.49,-0.14 -0.73,-0.21 0.16,0.36 0.42,0.39 0.73,0.21 z m -10.13,-4.18 c 0.14,0.1 0.28,0.21 0.42,0.31 0,-0.1 0,-0.21 0,-0.31 -0.15,0 -0.29,0 -0.42,0 z m 8.36,3.35 c 0.14,0.1 0.28,0.21 0.42,0.31 -0.14,-0.11 -0.28,-0.21 -0.42,-0.31 z m -7.11,-0.22 c 0.04,0.4 -0.21,0.25 -0.4,0.21 -0.01,0.04 -0.02,0.07 -0.04,0.11 0.02,0.21 0.04,0.42 0.06,0.62 0.27,-0.04 0.48,-0.06 0.69,-0.09 0.07,-0.11 0.14,-0.21 0.21,-0.32 -0.17,-0.18 -0.34,-0.35 -0.52,-0.53 z m -22.59,-5.02 c 0.38,0.01 0.73,0.04 0.93,0.43 0.04,0.08 0.15,0.17 0.24,0.18 0.8,0.08 1.6,0.15 2.44,0.22 0.03,-0.44 0.21,-0.73 0.69,-0.74 0.08,0 0.2,-0.13 0.22,-0.23 0.23,-0.8 0.86,-0.99 1.57,-1 0.37,0 0.75,0.1 1.12,0.14 0.11,0.01 0.22,-0.03 0.32,-0.04 -0.46,-0.14 -0.92,-0.26 -1.36,-0.44 -0.13,-0.05 -0.21,-0.25 -0.31,-0.39 -0.63,-0.01 -1.25,-0.02 -1.88,-0.03 -0.14,0.05 -0.28,0.1 -0.42,0.14 -0.03,0.03 -0.07,0.05 -0.1,0.08 v 0 c 0,0.47 -0.2,0.64 -0.7,0.65 -0.48,0.01 -0.96,0.19 -1.42,0.36 -0.48,0.17 -0.89,0.58 -1.48,0.3 -0.11,-0.05 -0.31,0.1 -0.47,0.16 0.2,0.08 0.4,0.2 0.61,0.21 z m 5.97,-1.91 c -0.03,0.02 -0.07,0.03 -0.1,0.05 0.1,0.13 0.17,0.34 0.31,0.39 0.44,0.17 0.91,0.29 1.36,0.44 0.04,0 0.07,0 0.11,0 0.24,0 0.49,0 0.73,0 0.14,-0.04 0.28,-0.07 0.42,-0.11 0.14,-0.2 0.28,-0.41 0.42,-0.61 -0.06,0.02 -0.13,0.03 -0.19,0.05 -0.49,0.04 -0.99,0.08 -1.48,0.12 -0.31,-0.11 -0.63,-0.21 -0.94,-0.32 -0.22,0 -0.43,-0.01 -0.64,-0.01 z m 3.87,0.45 c 0,-0.11 -0.01,-0.22 -0.01,-0.32 -0.14,0 -0.28,-0.01 -0.41,-0.01 -0.07,0.01 -0.14,0.03 -0.21,0.04 -0.14,0.2 -0.28,0.41 -0.42,0.61 0.35,-0.11 0.7,-0.21 1.05,-0.32 z m -4.3,59.05 c 1.63,-0.05 3.26,-0.07 4.89,-0.12 0.78,-0.02 0.94,-0.22 0.8,-0.98 -0.02,-0.08 -0.03,-0.17 -0.02,-0.26 0.09,-1.09 0.08,-2.16 -0.29,-3.21 -0.06,-0.18 -0.03,-0.41 0,-0.61 0.15,-0.99 0.42,-1.98 0.43,-2.97 0.01,-1.15 -0.19,-2.3 -0.31,-3.45 -0.04,-0.42 0.25,-1.1 0.57,-1.27 0,-1.43 0,-2.86 0,-4.28 -0.34,-0.31 -0.34,-1.07 0,-1.25 0,-0.7 0,-1.39 0,-2.09 -0.06,-0.1 -0.16,-0.19 -0.16,-0.29 -0.04,-0.76 -0.49,-1.52 -0.06,-2.3 0.01,-0.01 -0.01,-0.03 -0.01,-0.05 -0.1,-1.34 -0.2,-2.68 -0.28,-4.01 -0.01,-0.15 0.13,-0.3 0.2,-0.45 0,-0.21 0,-0.42 0,-0.63 0,-0.31 0,-0.63 0,-0.94 -0.17,-0.32 -0.46,-0.62 -0.49,-0.95 -0.06,-0.61 0.06,-1.24 0.05,-1.86 -0.01,-0.46 -0.1,-0.92 -0.13,-1.39 -0.01,-0.13 0.1,-0.26 0.16,-0.4 0,-0.38 0,-0.77 -0.01,-1.15 -0.05,-0.02 -0.13,-0.03 -0.14,-0.06 -0.17,-0.58 -0.34,-1.17 -0.47,-1.76 -0.03,-0.14 0.12,-0.32 0.19,-0.48 -0.04,-0.66 -0.07,-1.32 -0.11,-1.98 -0.07,-0.07 -0.14,-0.14 -0.21,-0.21 -0.03,-0.1 -0.07,-0.21 -0.1,-0.31 -1.2,0 -1.19,0 -1.38,-1.11 -0.02,-0.14 -0.26,-0.24 -0.39,-0.36 -0.07,-0.06 -0.18,-0.12 -0.19,-0.19 -0.01,-0.08 0.06,-0.25 0.11,-0.26 0.61,-0.11 0.5,-0.58 0.49,-0.98 -0.01,-0.69 -0.07,-1.38 -0.06,-2.07 0.01,-0.53 0.11,-1.05 0.14,-1.58 0.01,-0.11 -0.06,-0.29 -0.14,-0.32 -0.48,-0.16 -0.97,-0.34 -1.46,-0.4 -0.36,-0.04 -0.74,0.09 -1.11,0.16 -0.15,0.03 -0.35,0.02 -0.44,0.11 -0.41,0.43 -0.95,0.37 -1.45,0.39 -0.13,0.01 -0.26,-0.19 -0.39,-0.3 -0.28,-0.1 -0.56,-0.21 -0.84,-0.31 -0.9,0.11 -1.59,-0.24 -1.73,-0.88 -0.03,-0.12 0.04,-0.25 0.06,-0.38 0,-0.14 0,-0.28 0,-0.42 -0.59,-0.44 -1.19,-0.4 -1.78,0 -0.23,0.15 -0.49,0.29 -0.64,0.5 -0.23,0.32 -0.38,0.69 -0.53,1.05 -0.04,0.1 0.05,0.26 0.09,0.4 0.12,-0.05 0.28,-0.06 0.34,-0.15 0.23,-0.32 0.49,-0.34 0.86,-0.27 0.4,0.08 0.82,0 1.23,0.04 0.4,0.03 1.1,0.92 1.07,1.31 0,0.07 -0.01,0.15 -0.06,0.19 -0.29,0.27 -0.6,0.52 -0.87,0.81 -0.09,0.1 -0.09,0.3 -0.11,0.46 -0.02,0.16 0,0.32 0,0.48 0.07,0.07 0.14,0.14 0.21,0.21 0.25,-0.22 0.34,-0.01 0.38,0.17 0.05,0.21 0.03,0.44 0.04,0.66 0,0.07 0,0.14 0,0.21 0.5,0.04 1,0.06 1.5,0.12 0.35,0.04 0.87,0.71 0.9,1.17 0.03,0.55 0.01,1.11 0.01,1.7 -0.19,0 -0.33,0 -0.55,0 0.06,0.17 0.07,0.36 0.14,0.39 0.47,0.2 0.46,0.65 0.49,1.02 0.04,0.5 -0.03,1 -0.05,1.5 -0.01,0.37 -0.01,0.75 -0.03,1.12 -0.04,0.76 0.03,1.56 -0.18,2.28 -0.18,0.62 -0.03,1.12 0.15,1.65 0.01,0.03 0.03,0.07 0.02,0.1 -0.33,1.06 0.43,2.12 0.08,3.13 -0.28,0.81 -0.2,1.5 0,2.28 0.11,0.43 0.04,0.91 -0.21,1.39 -0.2,0.4 -0.05,0.98 -0.02,1.48 0.05,0.91 0.13,1.82 0.21,2.73 0.02,0.22 0.1,0.44 0.11,0.66 0.01,0.2 0.05,0.45 -0.05,0.59 -0.25,0.34 -0.19,0.59 0.07,0.87 0.21,0.23 0.36,0.46 0,0.74 -0.13,0.1 -0.17,0.37 -0.17,0.57 -0.02,0.68 0.01,1.36 -0.02,2.04 -0.02,0.35 0.09,0.79 -0.42,0.95 -0.03,0.01 -0.01,0.3 0.06,0.42 0.06,0.1 0.23,0.12 0.4,0.21 -0.21,0.19 -0.48,0.32 -0.51,0.5 -0.03,0.15 0.22,0.35 0.37,0.56 0,0.56 0.03,1.21 -0.01,1.86 -0.04,0.6 -0.15,1.19 -0.22,1.79 -0.03,0.26 -0.08,0.52 -0.06,0.77 0.07,0.84 0.19,1.68 0.26,2.52 0.01,0.09 -0.16,0.29 -0.26,0.29 -0.4,0.03 -0.47,0.29 -0.43,0.58 0.06,0.42 0.18,0.83 0.27,1.25 0.05,0.24 0.07,0.48 0.11,0.72 -0.06,0.01 -0.11,0.02 -0.17,0.04 -0.09,-0.15 -0.18,-0.31 -0.27,-0.46 -0.04,0.01 -0.07,0.03 -0.11,0.04 0.02,0.26 0.05,0.53 0.06,0.79 0.01,0.57 -0.02,1.14 0,1.71 0.01,0.33 0.17,0.46 0.55,0.4 0.42,-0.07 0.89,-0.13 1.22,0.28 0.1,0 0.21,0 0.31,0 0.16,-0.08 0.33,-0.2 0.5,-0.21 z m 2.37,-38.03 c -0.05,0.16 -0.09,0.38 -0.02,0.5 0.27,0.48 0.62,0.93 0.88,1.41 0.34,0.62 0.26,1.3 0.24,1.99 -0.04,1.28 -0.01,2.56 0,3.85 0,0.09 0.05,0.22 0.12,0.26 0.49,0.28 0.35,0.7 0.17,1.04 -0.28,0.51 -0.29,1 -0.12,1.57 -0.17,0.16 -0.35,0.34 -0.54,0.52 -0.36,0.34 -0.34,0.43 0.13,0.61 0.1,0.04 0.19,0.08 0.23,0.1 -0.04,0.34 -0.11,0.64 -0.11,0.94 -0.01,7.02 -0.01,14.04 0.01,21.06 0,0.32 0.19,0.64 0.23,0.97 0.03,0.25 -0.04,0.52 -0.06,0.78 -0.05,0 -0.1,0 -0.16,0.01 0.06,0.12 0.17,0.24 0.16,0.36 -0.01,0.11 -0.14,0.28 -0.22,0.29 -1.12,0.06 -2.24,0.09 -3.36,0.12 -0.36,0.01 -0.72,-0.01 -1.07,-0.04 -0.07,0 -0.18,-0.08 -0.19,-0.14 -0.01,-0.09 0.02,-0.25 0.07,-0.27 0.8,-0.35 0.53,-1.19 0.79,-1.78 0.17,-0.38 0.03,-0.89 0.03,-1.39 -0.54,0.16 -0.52,-0.17 -0.52,-0.51 0.01,-1.24 0,-2.47 0,-3.71 0,-0.16 0,-0.32 -0.04,-0.47 -0.15,-0.56 -0.1,-0.64 0.48,-0.63 0.02,-0.03 0.06,-0.06 0.05,-0.08 -0.18,-0.52 -0.18,-0.95 0.48,-1.16 0.11,-0.03 0.16,-0.37 0.17,-0.57 0.02,-0.83 0.02,-1.65 0,-2.48 0,-0.29 -0.1,-0.58 -0.09,-0.87 0.01,-0.64 0.09,-1.28 0.09,-1.92 0,-0.59 -0.09,-1.18 -0.09,-1.76 -0.01,-1.85 0,-3.69 -0.01,-5.54 0,-0.17 -0.06,-0.36 -0.14,-0.52 -0.09,-0.17 -0.24,-0.31 -0.36,-0.47 0.16,-0.12 0.33,-0.25 0.61,-0.46 -0.02,-0.21 -0.08,-0.56 -0.09,-0.91 -0.02,-0.64 0.01,-1.29 -0.02,-1.93 -0.01,-0.17 -0.13,-0.38 -0.27,-0.49 -0.48,-0.36 -0.56,-0.66 -0.1,-1.08 0.32,-0.3 0.39,-0.62 0.39,-1.02 -0.01,-1.97 0,-3.94 0,-5.9 0,-0.39 0.13,-0.85 -0.03,-1.16 -0.47,-0.91 -0.21,-1.86 -0.29,-2.79 -0.03,-0.37 -0.01,-0.78 -0.42,-1 -0.03,-0.01 -0.06,-0.05 -0.06,-0.08 -0.13,-0.98 -0.99,-1.1 -1.69,-1.41 -0.13,-0.06 -0.24,-0.16 -0.33,-0.32 0.66,0.1 1.26,-0.44 1.94,-0.04 0.25,0.15 0.65,0.05 0.98,0.05 0.58,0.01 0.85,0.27 0.71,0.81 -0.29,1.1 0.11,2.01 0.65,2.93 0.18,0.31 0.46,0.64 0.19,1.1 -0.13,0.22 0.02,0.6 0.05,0.94 0.62,-0.01 0.72,0.13 0.55,0.69 z m 1.91,19.08 c 0,0.47 0.17,0.96 -0.2,1.44 -0.15,0.2 0.06,0.67 0.08,1.02 0.06,1 0.11,1.99 0.14,2.99 0,0.14 -0.11,0.35 -0.22,0.4 -0.23,0.1 -0.39,0.01 -0.39,-0.29 0.01,-2.03 0,-4.06 0.01,-6.08 0,-0.09 0.06,-0.18 0.09,-0.27 0.05,-0.01 0.1,-0.03 0.15,-0.04 0.1,0.28 0.33,0.55 0.34,0.83 z m 0.01,10.2 c -0.1,0.25 -0.19,0.48 -0.28,0.72 -0.08,-0.02 -0.16,-0.03 -0.23,-0.05 -0.03,-0.8 -0.08,-1.59 -0.09,-2.39 0,-0.09 0.19,-0.19 0.29,-0.29 0.07,0.1 0.17,0.18 0.21,0.29 0.19,0.54 0.36,1.08 0.55,1.64 -0.14,0.03 -0.3,0.06 -0.45,0.08 z m -5.62,-32.85 c 0.02,-0.12 0.17,-0.22 0.35,-0.26 0,0.67 0,1.34 0,2 -0.67,-0.49 -0.46,-1.13 -0.35,-1.74 z m 6.66,28.59 c 0.04,0.03 0.07,0.08 0.09,0.13 0,0.02 -0.06,0.05 -0.1,0.08 -0.03,-0.04 -0.05,-0.07 -0.11,-0.15 0.05,-0.02 0.11,-0.07 0.12,-0.06 z m -5.19,-38.1 c -0.04,0.72 0.05,1.44 0.05,2.17 0,0.39 -0.05,0.78 -0.09,1.17 0.07,0.04 0.14,0.08 0.22,0.12 0.14,-0.32 0.38,-0.63 0.4,-0.95 0.05,-0.93 0.02,-1.87 0.02,-2.81 0.22,-0.31 -0.01,-0.47 -0.21,-0.64 -0.13,0.31 -0.37,0.62 -0.39,0.94 z m -2.01,3.88 c -0.87,-0.26 -1.64,-0.66 -2,-1.57 -0.13,0.07 -0.27,0.14 -0.4,0.21 0,0.14 0,0.28 0,0.42 0.19,0.13 0.39,0.25 0.58,0.39 0.37,0.28 0.73,0.57 1.09,0.86 0.28,0.1 0.56,0.21 0.84,0.31 0.19,0 0.38,0 0.57,0 0.75,0 1.19,-0.44 1.53,-1.05 -0.07,-0.04 -0.14,-0.08 -0.22,-0.12 -0.45,0.63 -1.13,0.81 -1.99,0.55 z m 8.04,36.26 c 0,0.3 0.09,0.46 0.41,0.41 0,-3.52 0,-7.03 0,-10.55 -0.51,-0.07 -0.31,0.44 -0.5,0.63 0,0.7 0,1.39 0,2.09 0,0.42 0,0.84 0,1.25 0,1.43 0,2.86 0,4.28 0.03,0.63 0.08,1.26 0.09,1.89 z m -16.71,-46 c -0.83,-0.02 -1.67,-0.05 -2.5,-0.07 -0.07,0.1 -0.14,0.2 -0.22,0.29 0,0.07 0,0.14 0.01,0.22 0,0 0,0 0,0 1.04,0 2.07,-0.01 3.11,0.01 0.33,0.01 0.5,-0.08 0.44,-0.43 -0.21,0 -0.42,-0.01 -0.62,-0.01 -0.08,-0.01 -0.15,-0.01 -0.22,-0.01 z m -8.05,3.38 c 0.73,-0.04 1.46,-0.07 2.19,-0.11 0.1,0.03 0.21,0.07 0.31,0.1 0,-0.14 0,-0.29 0.01,-0.43 -0.25,-0.2 -0.55,-0.36 -0.51,-0.74 0.04,0.03 0.08,0.05 0.12,0.08 0.32,-0.29 0.62,-0.62 0.97,-0.86 0.25,-0.17 0.58,-0.25 0.88,-0.34 0.34,-0.1 0.7,-0.15 1.05,-0.23 0.1,0 0.21,0 0.31,0 0,-0.14 0,-0.28 0,-0.42 0,0 0,0 0,0 -0.04,-0.04 -0.07,-0.08 -0.11,-0.11 -0.17,0.03 -0.35,0.06 -0.52,0.09 -0.1,0 -0.21,0.01 -0.31,0.01 -0.49,0.2 -1.07,0.29 -1.44,0.61 -0.83,0.73 -1.79,1.19 -2.73,1.71 -0.14,0.21 -0.28,0.41 -0.42,0.62 0.07,0 0.14,0.01 0.2,0.02 z m 4.35,-2 c -0.61,0.05 -1.29,0.41 -1.66,0.86 0.44,0.06 0.83,0.16 1.23,0.17 1.15,0.02 2.31,-0.01 3.46,0.01 0.8,0.02 1.53,-0.2 2.19,-0.62 0.24,-0.15 0.43,-0.38 0.59,-0.52 0.33,0.25 0.58,0.43 0.82,0.61 0.21,-0.07 0.42,-0.14 0.62,-0.21 0.28,-0.3 0.77,-0.3 1.05,0 0.54,-0.12 0.92,0.14 1.26,0.52 0.24,0.1 0.49,0.21 0.73,0.31 0.17,0 0.35,0 0.52,0 0.57,-0.03 1.14,-0.1 1.7,-0.07 0.94,0.06 1.88,0.19 2.82,0.27 0.38,0.03 0.76,-0.01 1.14,0.01 0.47,0.03 0.86,0.2 1.04,0.7 0.14,0.38 0.31,0.75 0.52,1.09 0.2,0.33 0.47,0.62 0.71,0.92 0.07,0 0.14,0 0.21,0 0.3,0.07 0.6,0.14 0.9,0.21 0.33,0.07 0.68,0.1 1,0.22 0.19,0.07 0.34,0.27 0.5,0.4 0.21,0 0.42,0 0.63,0 0.01,-0.07 0,-0.14 0.02,-0.21 0.2,-0.85 -0.06,-1.18 -0.91,-1.15 -0.14,0.01 -0.27,0.05 -0.41,0.07 -0.45,0.06 -0.66,-0.14 -0.7,-0.59 -0.02,-0.32 -0.13,-0.64 -0.15,-0.97 -0.01,-0.16 0.1,-0.33 0.15,-0.5 0,-0.17 0,-0.35 0,-0.52 -0.19,-0.46 -0.09,-0.9 0.25,-1.22 0.39,-0.36 0.86,-0.63 1.31,-0.92 0.69,-0.44 1.46,-0.31 2.21,-0.26 0.28,-0.11 0.56,-0.21 0.84,-0.32 0,-0.67 0.08,-1.37 -0.57,-1.84 -0.07,-0.05 -0.04,-0.23 -0.06,-0.34 0,0 0,0 0,0 -0.35,0.07 -0.7,0.14 -1.04,0.21 -0.3,0.14 -0.58,0.31 -0.89,0.41 -0.63,0.22 -1.3,0.3 -1.96,0.2 -0.29,-0.04 -0.54,-0.26 -0.81,-0.4 -0.24,0 -0.49,0 -0.73,0 -0.35,0.1 -0.7,0.21 -1.05,0.31 -0.14,0.04 -0.28,0.07 -0.42,0.11 -0.24,0.38 -0.49,0.28 -0.73,0 -0.04,0 -0.07,0 -0.11,0 -0.11,0.02 -0.22,0.05 -0.32,0.04 -0.37,-0.04 -0.75,-0.14 -1.12,-0.14 -0.71,0.01 -1.34,0.2 -1.57,1 -0.03,0.09 -0.15,0.23 -0.22,0.23 -0.48,0.01 -0.66,0.29 -0.69,0.74 -0.84,-0.07 -1.64,-0.14 -2.44,-0.22 -0.09,-0.01 -0.2,-0.1 -0.24,-0.18 -0.2,-0.39 -0.55,-0.42 -0.93,-0.43 -0.21,-0.01 -0.41,-0.13 -0.61,-0.2 -0.24,0 -0.49,0 -0.73,0 -0.14,0.03 -0.28,0.07 -0.42,0.1 -0.31,0.07 -0.63,0.14 -0.94,0.21 -0.29,0.49 -0.5,0.99 -1.18,1.14 -0.58,0.13 -1.16,0.49 -1.75,0.3 -0.71,-0.23 -1.39,-0.02 -2.09,-0.08 -0.1,0 -0.21,0 -0.31,0 -0.08,0.37 -0.3,0.51 -0.66,0.54 z m 11.23,1.77 c -0.14,-0.21 -0.28,-0.42 -0.42,-0.62 -0.17,0 -0.35,0 -0.52,0 -0.24,-0.1 -0.49,-0.21 -0.73,-0.31 -0.33,-0.38 -0.71,-0.64 -1.26,-0.52 -0.1,0.09 -0.2,0.18 -0.3,0.27 -0.24,-0.09 -0.49,-0.18 -0.74,-0.27 -0.21,0.07 -0.42,0.14 -0.62,0.21 -0.25,0.41 -0.64,0.17 -0.96,0.19 -0.37,0.02 -0.54,0.14 -0.5,0.52 0.32,-0.02 0.65,-0.02 0.97,-0.08 0.61,-0.11 1.21,-0.34 1.85,-0.11 0.06,0.02 0.15,0.03 0.2,0 0.85,-0.51 1.25,0.25 1.79,0.63 0.35,0.11 0.69,0.22 1.04,0.33 0.05,-0.1 0.13,-0.17 0.2,-0.24 z m 4.59,0.74 c -0.07,-0.04 -0.14,-0.07 -0.21,-0.11 -0.59,-0.04 -1.18,-0.07 -1.77,-0.11 -0.21,0.04 -0.54,-0.13 -0.52,0.3 0.7,0.09 1.34,0.52 2.09,0.35 0.13,-0.14 0.27,-0.29 0.41,-0.43 z m -3.04,-0.82 c -0.37,-0.11 -0.31,0.18 -0.2,0.4 0.24,0.16 0.49,0.33 0.73,0.49 -0.01,-0.43 0.31,-0.26 0.52,-0.3 -0.34,-0.2 -0.67,-0.48 -1.05,-0.59 z m -1.14,0.69 c 0.08,-0.35 -0.09,-0.53 -0.41,-0.61 -0.07,0.07 -0.14,0.15 -0.21,0.22 0.2,0.13 0.41,0.26 0.62,0.39 z m 8.35,22.23 c -0.09,-0.93 -0.27,-1.85 -0.4,-2.78 -0.06,0.13 -0.17,0.27 -0.16,0.4 0.02,0.46 0.12,0.92 0.13,1.39 0.01,0.62 -0.11,1.25 -0.05,1.86 0.03,0.33 0.32,0.64 0.49,0.95 0,-0.61 0.05,-1.22 -0.01,-1.82 z m -0.41,-4.7 c -0.04,-0.53 0.02,-1.1 -0.41,-1.53 -0.07,0.16 -0.22,0.34 -0.19,0.48 0.12,0.59 0.3,1.17 0.47,1.76 0.01,0.03 0.09,0.04 0.14,0.06 -0.01,-0.25 0.01,-0.51 -0.01,-0.77 z m -0.73,-3.72 c 0.07,0.07 0.14,0.14 0.21,0.21 -0.07,-0.07 -0.14,-0.14 -0.21,-0.21 z m -13.75,-17.77 c -0.1,0.03 -0.24,-0.07 -0.36,-0.11 -0.04,0.04 -0.08,0.08 -0.12,0.11 -0.03,0.07 -0.06,0.13 -0.08,0.2 0.06,0.35 -0.11,0.44 -0.44,0.43 -1.04,-0.02 -2.07,-0.01 -3.11,-0.01 0,0.14 0,0.28 0,0.42 0.69,0.06 1.38,-0.15 2.09,0.08 0.59,0.19 1.16,-0.17 1.75,-0.3 0.69,-0.15 0.9,-0.66 1.18,-1.14 -0.31,0.12 -0.6,0.24 -0.91,0.32 z m 1.84,-0.52 c 0.14,-0.03 0.28,-0.07 0.42,-0.1 -0.14,0.04 -0.28,0.07 -0.42,0.1 z m 3.03,14.94 c 0.07,0.24 0.14,0.48 0.21,0.72 0.06,0.11 0.13,0.22 0.19,0.33 0.04,0.1 0.09,0.21 0.13,0.31 0.03,0.03 0.07,0.07 0.1,0.1 0.07,0.03 0.14,0.06 0.2,0.1 0.1,0.01 0.2,0.01 0.31,0.02 l 0.01,-0.01 c -0.15,-0.28 -0.28,-0.58 -0.46,-0.84 -0.13,-0.19 -0.32,-0.34 -0.48,-0.51 0,-0.07 0,-0.14 0,-0.21 -0.07,0 -0.14,0 -0.21,-0.01 z m 14.97,-14.62 c 0.53,0.03 1.02,-0.03 1.45,-0.37 0.07,-0.06 0.2,-0.04 0.3,-0.05 0.05,-0.14 0.05,-0.32 0.14,-0.4 0.33,-0.29 0.21,-0.57 -0.09,-0.69 -0.67,-0.28 -1.29,-0.77 -2.1,-0.59 -0.21,0.05 -0.45,0.01 -0.67,0.01 0.02,0.12 -0.01,0.29 0.06,0.34 0.65,0.48 0.57,1.17 0.57,1.84 0.12,-0.03 0.23,-0.09 0.34,-0.09 z m -2.48,-1.91 c -0.54,0.07 -1.08,0.18 -1.62,0.22 -0.52,0.04 -1.04,0.01 -1.56,0.01 0.27,0.14 0.53,0.36 0.81,0.4 0.66,0.1 1.32,0.02 1.96,-0.2 0.31,-0.1 0.59,-0.27 0.89,-0.41 -0.17,0 -0.33,-0.04 -0.48,-0.02 z m -34.07,9.05 c 0.02,-0.05 0.04,-0.09 0.05,-0.14 -0.04,0 -0.07,0 -0.11,0 0.02,0.04 0.04,0.09 0.06,0.14 z m 30.78,-0.98 c 0.22,0.04 0.49,0.02 0.64,0.14 0.47,0.4 1,0.4 1.55,0.38 -0.17,-0.14 -0.31,-0.33 -0.5,-0.4 -0.32,-0.12 -0.67,-0.15 -1,-0.22 -0.3,-0.07 -0.6,-0.14 -0.9,-0.21 0.07,0.1 0.14,0.21 0.21,0.31 z m -7.57,10.59 c -0.08,0.54 0.01,1.1 0.04,1.65 0.02,0.33 -0.11,0.45 -0.42,0.41 -0.01,0.17 -0.01,0.35 -0.02,0.52 0,0.1 0,0.21 0,0.31 0,0.31 0,0.63 0,0.94 0,0.07 0,0.14 0,0.21 0.05,1.53 0.09,3.07 0.14,4.6 0.59,-0.04 0.65,0.41 0.7,0.81 0.05,0.35 0.01,0.72 0.01,1.07 0,2.05 0,4.09 0,6.14 0,0.5 -0.15,0.88 -0.71,0.97 -0.05,2.47 -0.09,4.95 -0.14,7.42 0.01,0.14 0.02,0.28 0.04,0.42 0.29,-0.02 0.4,0.13 0.4,0.41 0,2.59 0.02,5.19 -0.03,7.78 -0.01,0.39 -0.06,0.95 -0.69,1 -0.01,0.1 -0.02,0.21 -0.04,0.31 -0.03,0.49 -0.05,0.98 -0.08,1.47 0,0.63 0.01,1.25 0.01,1.88 0.33,0.03 0.42,0.23 0.41,0.54 -0.02,0.43 -0.01,0.86 0,1.3 0,0.62 0.05,0.67 0.69,0.67 0.5,0 1,0 1.51,0 -0.33,-0.41 -0.81,-0.35 -1.22,-0.28 -0.39,0.06 -0.54,-0.06 -0.55,-0.4 -0.02,-0.57 0,-1.14 0,-1.71 0,-0.26 -0.04,-0.53 -0.06,-0.79 0.04,-0.01 0.07,-0.03 0.11,-0.04 0.09,0.15 0.18,0.31 0.27,0.46 0.06,-0.01 0.11,-0.02 0.17,-0.04 -0.03,-0.24 -0.06,-0.49 -0.11,-0.72 -0.08,-0.42 -0.21,-0.83 -0.27,-1.25 -0.04,-0.29 0.03,-0.55 0.43,-0.58 0.1,-0.01 0.27,-0.2 0.26,-0.29 -0.07,-0.84 -0.18,-1.68 -0.26,-2.52 -0.02,-0.25 0.03,-0.51 0.06,-0.77 0.07,-0.6 0.19,-1.19 0.22,-1.79 0.04,-0.65 0.01,-1.3 0.01,-1.86 -0.15,-0.21 -0.39,-0.41 -0.37,-0.56 0.03,-0.17 0.3,-0.3 0.51,-0.5 -0.17,-0.08 -0.34,-0.11 -0.4,-0.21 -0.07,-0.12 -0.09,-0.41 -0.06,-0.42 0.51,-0.16 0.4,-0.6 0.42,-0.95 0.03,-0.68 0,-1.36 0.02,-2.04 0.01,-0.2 0.05,-0.47 0.17,-0.57 0.36,-0.28 0.21,-0.52 0,-0.74 -0.27,-0.29 -0.32,-0.53 -0.07,-0.87 0.1,-0.14 0.06,-0.39 0.05,-0.59 -0.01,-0.22 -0.09,-0.44 -0.11,-0.66 -0.08,-0.91 -0.15,-1.82 -0.21,-2.73 -0.03,-0.5 -0.18,-1.09 0.02,-1.48 0.24,-0.48 0.32,-0.96 0.21,-1.39 -0.21,-0.78 -0.28,-1.48 0,-2.28 0.35,-1.01 -0.41,-2.07 -0.08,-3.13 0.01,-0.03 -0.01,-0.07 -0.02,-0.1 -0.18,-0.54 -0.32,-1.03 -0.15,-1.65 0.2,-0.72 0.13,-1.52 0.18,-2.28 0.02,-0.37 0.02,-0.75 0.03,-1.12 0.02,-0.5 0.09,-1.01 0.05,-1.5 -0.03,-0.37 -0.02,-0.82 -0.49,-1.02 -0.08,-0.03 -0.09,-0.23 -0.14,-0.39 0.22,0 0.36,0 0.55,0 0,-0.59 0.02,-1.14 -0.01,-1.7 -0.02,-0.46 -0.54,-1.13 -0.9,-1.17 -0.5,-0.05 -1,-0.08 -1.5,-0.12 0.16,0.17 0.35,0.32 0.48,0.51 0.18,0.26 0.31,0.56 0.46,0.84 0.4,0 0.55,0.11 0.48,0.57 z m -0.25,10.21 c 0.03,0.13 0.08,0.26 0.08,0.39 0,1.16 -0.01,2.32 -0.01,3.48 -0.03,0.04 -0.05,0.08 -0.08,0.12 0,0.16 0.01,0.31 0.01,0.47 0,0.99 0,1.98 0.01,2.97 0.56,-0.08 0.71,-0.47 0.71,-0.97 0,-2.05 0,-4.09 0,-6.14 -0.25,-0.11 -0.49,-0.22 -0.72,-0.32 z m 0.7,-0.76 c -0.06,-0.4 -0.11,-0.85 -0.7,-0.81 0,0.52 0,1.04 0,1.57 0.24,0.1 0.48,0.21 0.71,0.31 0,-0.36 0.04,-0.72 -0.01,-1.07 z m -0.93,19.17 c -0.07,2.01 -0.13,4.03 -0.19,6.04 0.63,-0.05 0.68,-0.61 0.69,-1 0.04,-2.59 0.02,-5.19 0.03,-7.78 0,-0.28 -0.11,-0.43 -0.4,-0.41 -0.05,1.05 -0.1,2.1 -0.13,3.15 z m 0.1,-26.56 c 0.31,0.04 0.45,-0.08 0.42,-0.41 -0.04,-0.55 -0.12,-1.11 -0.04,-1.65 0.07,-0.46 -0.09,-0.57 -0.47,-0.56 l -0.01,0.01 c 0,0.07 -0.01,0.14 -0.01,0.22 -0.03,0.14 -0.07,0.27 -0.1,0.41 -0.01,0.14 -0.01,0.28 -0.02,0.41 0,0.1 0.01,0.21 0.01,0.31 0.01,0.17 0.02,0.34 0.02,0.51 0.07,0.25 0.13,0.5 0.2,0.75 z m -5.43,-7.23 c 0.12,-0.43 -0.22,-0.63 -0.44,-0.88 -0.29,0.09 -0.59,0.16 -0.87,0.28 -0.4,0.18 -0.79,0.4 -1.18,0.61 0.14,0.13 0.28,0.27 0.42,0.4 0.17,0.08 0.34,0.17 0.51,0.25 0.07,0 0.14,0 0.21,0 l 0.05,-0.02 h 0.05 c 0.24,-0.32 0.39,-0.78 0.95,-0.61 0.09,-0.01 0.19,-0.02 0.3,-0.03 z m 0.31,0.03 c 0.1,0 0.21,0 0.31,0 0.04,-0.04 0.07,-0.08 0.11,-0.12 0.37,-0.48 0.51,-0.51 1.09,-0.17 0.37,0.22 0.75,0.45 1.06,0.75 0.21,0.2 0.31,0.51 0.46,0.78 0.14,0.24 0.28,0.49 0.42,0.73 0,-0.16 -0.01,-0.32 0,-0.48 0.02,-0.16 0.02,-0.36 0.11,-0.46 0.27,-0.29 0.58,-0.54 0.87,-0.81 0.04,-0.04 0.05,-0.13 0.06,-0.19 0.03,-0.39 -0.67,-1.27 -1.07,-1.31 -0.41,-0.04 -0.83,0.04 -1.23,-0.04 -0.37,-0.08 -0.63,-0.05 -0.86,0.27 -0.06,0.09 -0.22,0.1 -0.34,0.15 -0.03,-0.13 -0.13,-0.29 -0.09,-0.4 0.15,-0.36 0.31,-0.73 0.53,-1.05 0.15,-0.21 0.42,-0.35 0.64,-0.5 0.59,-0.4 1.19,-0.44 1.78,0 0.13,-0.07 0.27,-0.14 0.4,-0.21 0.15,-0.12 0.29,-0.23 0.44,-0.35 0.05,-0.19 0.1,-0.39 0.16,-0.58 0.08,-0.28 0.17,-0.56 0.25,-0.85 -0.2,-0.1 -0.4,-0.2 -0.61,-0.29 -0.22,-0.09 -0.45,-0.2 -0.68,-0.21 -0.09,0 -0.18,0.26 -0.28,0.4 -0.35,0.53 -0.66,1.11 -1.09,1.58 -0.15,0.16 -0.59,0.06 -0.9,0.08 -0.1,0 -0.21,0 -0.31,0 -0.04,0.44 -0.27,0.69 -0.71,0.73 -0.04,0.04 -0.09,0.08 -0.13,0.12 0.02,0.11 0.04,0.23 0.08,0.4 -0.26,0 -0.48,0 -0.7,0 -0.83,0 -0.83,0 -0.84,0.82 0.1,0.09 0.19,0.18 0.29,0.27 0.23,0.25 0.56,0.45 0.44,0.88 0.13,0.04 0.24,0.05 0.34,0.06 z m 1.18,0.08 c 0.22,0.14 0.44,0.3 0.67,0.42 0.21,0.11 0.45,0.19 0.67,0.29 0.03,0.36 0.05,0.72 0.08,1.07 0,0.08 0.01,0.17 0.01,0.25 l 0.01,0.03 c 0.26,0.11 0.72,-0.1 0.71,0.45 0.04,0.3 0.08,0.6 0.12,0.89 0.14,0.08 0.28,0.17 0.42,0.25 0.07,0 0.14,-0.01 0.21,-0.01 -0.07,-0.24 -0.14,-0.48 -0.21,-0.72 -0.07,-0.28 -0.14,-0.55 -0.21,-0.83 -0.07,-0.07 -0.14,-0.14 -0.21,-0.21 -0.14,-0.24 -0.28,-0.49 -0.42,-0.73 -0.15,-0.26 -0.25,-0.58 -0.46,-0.78 -0.31,-0.29 -0.69,-0.53 -1.06,-0.75 -0.59,-0.34 -0.73,-0.31 -1.09,0.17 0.28,0 0.63,-0.35 0.76,0.21 z m -1.47,-10 c -0.16,0.14 -0.35,0.37 -0.59,0.52 -0.67,0.42 -1.39,0.64 -2.19,0.62 -1.15,-0.02 -2.31,0.01 -3.46,-0.01 -0.4,-0.01 -0.79,-0.11 -1.23,-0.17 0.38,-0.45 1.06,-0.81 1.66,-0.86 0.36,-0.03 0.58,-0.18 0.67,-0.53 -0.35,0.07 -0.71,0.13 -1.05,0.23 -0.3,0.09 -0.63,0.17 -0.88,0.34 -0.35,0.24 -0.65,0.57 -0.97,0.86 -0.04,-0.03 -0.08,-0.05 -0.12,-0.08 -0.04,0.38 0.26,0.54 0.51,0.74 0.77,0 1.41,0.26 1.85,0.91 0.37,0.54 0.78,0.28 1.21,0.12 0.17,-0.15 0.33,-0.31 0.5,-0.46 0.09,-0.11 0.18,-0.29 0.28,-0.31 0.3,-0.05 0.61,-0.04 0.92,-0.02 0.16,0.01 0.31,0.12 0.47,0.18 0.21,-0.03 0.41,-0.06 0.62,-0.09 0.14,-0.04 0.28,-0.08 0.42,-0.12 0.09,-0.04 0.19,-0.09 0.28,-0.13 0,-0.3 0.15,-0.44 0.45,-0.43 -0.04,-0.38 0.13,-0.49 0.5,-0.52 0.32,-0.02 0.71,0.22 0.96,-0.19 -0.24,-0.17 -0.48,-0.35 -0.81,-0.6 z m 1.86,6.46 c -1.3,-0.85 -1.96,-2.16 -2.51,-3.54 -0.08,-0.19 -0.21,-0.37 -0.31,-0.55 -0.35,0.07 -0.7,0.14 -1.05,0.2 -0.17,0.15 -0.35,0.29 -0.51,0.44 0.35,0.2 0.69,0.36 1.01,0.56 0.71,0.45 0.98,1.16 0.62,1.75 0.72,0.03 0.79,0.61 0.97,1.11 0.02,0.06 0.07,0.1 0.11,0.16 0.21,-0.48 0.71,-0.56 1.14,-0.18 0.09,0.08 0.15,0.18 0.23,0.27 0.1,0 0.21,0 0.31,0 -0.01,-0.08 -0.01,-0.15 -0.01,-0.22 z m -3.95,1.05 c 0.15,0.27 0.32,0.54 0.45,0.83 0.19,0.4 0.5,0.48 0.89,0.4 0,-0.82 0,-0.82 0.84,-0.82 0.22,0 0.44,0 0.7,0 -0.03,-0.17 -0.05,-0.29 -0.08,-0.4 -0.93,0 -1.87,0 -2.8,-0.01 z m -5.56,-5.43 c 0.09,0.07 0.19,0.2 0.27,0.19 0.33,-0.05 1.31,0.32 1.5,0.6 0.44,0.63 0.85,0.64 1.38,0.04 -0.03,-0.07 -0.07,-0.15 -0.1,-0.22 -0.42,0.16 -0.84,0.42 -1.21,-0.12 -0.44,-0.65 -1.08,-0.92 -1.85,-0.91 0.01,0.14 0.01,0.28 0.01,0.42 z m 8.49,5.32 c 0.44,-0.05 0.67,-0.29 0.71,-0.73 -0.08,-0.09 -0.14,-0.19 -0.23,-0.27 -0.42,-0.39 -0.92,-0.3 -1.14,0.18 0.22,0.27 0.44,0.54 0.66,0.82 z m -4.41,-4.82 c 0.5,0.09 0.89,-0.04 1.15,-0.5 -0.16,-0.06 -0.31,-0.17 -0.47,-0.18 -0.31,-0.03 -0.62,-0.03 -0.92,0.02 -0.11,0.02 -0.19,0.2 -0.28,0.31 0.17,0.11 0.35,0.23 0.52,0.35 z m -2.43,1.06 c -0.03,-0.03 -0.05,-0.05 -0.08,-0.08 0.03,0.02 0.05,0.05 0.08,0.08 z m 31.08,-0.32 c 0.19,0.04 0.44,0.19 0.4,-0.21 0.09,-0.39 0.06,-0.73 -0.34,-0.95 -0.03,0 -0.05,0.01 -0.08,0.01 0.01,0.39 0.02,0.77 0.02,1.15 z m -18.62,-6.98 c -0.03,0.03 -0.07,0.05 -0.1,0.08 0.03,-0.02 0.06,-0.05 0.1,-0.08 z m 4.08,0.72 c 0.24,0.28 0.49,0.37 0.73,0 -0.25,0 -0.49,0 -0.73,0 z m -0.34,18.94 c 0.27,-0.47 -0.01,-0.8 -0.19,-1.1 -0.54,-0.92 -0.94,-1.83 -0.65,-2.93 0.14,-0.54 -0.13,-0.8 -0.71,-0.81 -0.33,0 -0.73,0.09 -0.98,-0.05 -0.68,-0.4 -1.28,0.14 -1.94,0.04 0.09,0.17 0.2,0.27 0.33,0.32 0.7,0.31 1.55,0.42 1.69,1.41 0,0.03 0.03,0.07 0.06,0.08 0.41,0.22 0.38,0.63 0.42,1 0.08,0.93 -0.18,1.88 0.29,2.79 0.16,0.31 0.03,0.77 0.03,1.16 0,1.97 -0.01,3.94 0,5.9 0,0.4 -0.06,0.72 -0.39,1.02 -0.46,0.42 -0.38,0.72 0.1,1.08 0.14,0.1 0.26,0.32 0.27,0.49 0.03,0.64 0,1.29 0.02,1.93 0.01,0.35 0.07,0.7 0.09,0.91 -0.28,0.21 -0.44,0.34 -0.61,0.46 0.12,0.15 0.27,0.29 0.36,0.47 0.08,0.16 0.14,0.34 0.14,0.52 0.01,1.85 0,3.69 0.01,5.54 0,0.59 0.09,1.18 0.09,1.76 0,0.64 -0.08,1.28 -0.09,1.92 -0.01,0.29 0.09,0.58 0.09,0.87 0.01,0.83 0.02,1.65 0,2.48 0,0.2 -0.06,0.53 -0.17,0.57 -0.65,0.21 -0.65,0.64 -0.48,1.16 0.01,0.02 -0.03,0.06 -0.05,0.08 -0.58,-0.01 -0.63,0.06 -0.48,0.63 0.04,0.15 0.04,0.31 0.04,0.47 0,1.24 0.01,2.47 0,3.71 0,0.34 -0.01,0.67 0.52,0.51 0,0.5 0.14,1.01 -0.03,1.39 -0.26,0.59 0.01,1.43 -0.79,1.78 -0.06,0.02 -0.09,0.18 -0.07,0.27 0.01,0.06 0.12,0.13 0.19,0.14 0.36,0.02 0.72,0.05 1.07,0.04 1.12,-0.03 2.24,-0.07 3.36,-0.12 0.08,0 0.22,-0.18 0.22,-0.29 0.01,-0.11 -0.1,-0.24 -0.16,-0.36 0.05,0 0.1,0 0.16,-0.01 0.03,-0.26 0.09,-0.53 0.06,-0.78 -0.04,-0.33 -0.23,-0.65 -0.23,-0.97 -0.01,-7.02 -0.01,-14.04 -0.01,-21.06 0,-0.3 0.07,-0.6 0.11,-0.94 -0.04,-0.02 -0.13,-0.06 -0.23,-0.1 -0.47,-0.18 -0.49,-0.27 -0.13,-0.61 0.19,-0.18 0.37,-0.36 0.54,-0.52 -0.18,-0.57 -0.16,-1.06 0.12,-1.57 0.18,-0.33 0.31,-0.76 -0.17,-1.04 -0.07,-0.04 -0.12,-0.17 -0.12,-0.26 -0.01,-1.28 -0.05,-2.57 0,-3.85 0.02,-0.69 0.11,-1.37 -0.24,-1.99 -0.27,-0.49 -0.61,-0.93 -0.88,-1.41 -0.07,-0.13 -0.03,-0.34 0.02,-0.5 0.17,-0.56 0.07,-0.7 -0.56,-0.7 -0.02,-0.33 -0.17,-0.7 -0.04,-0.93 z m 2,19.94 c -0.03,0.09 -0.09,0.18 -0.09,0.27 -0.01,2.03 0,4.06 -0.01,6.08 0,0.3 0.17,0.39 0.39,0.29 0.11,-0.05 0.23,-0.26 0.22,-0.4 -0.03,-1 -0.08,-1.99 -0.14,-2.99 -0.02,-0.35 -0.23,-0.82 -0.08,-1.02 0.37,-0.48 0.2,-0.97 0.2,-1.44 0,-0.28 -0.23,-0.56 -0.36,-0.84 -0.03,0.02 -0.08,0.03 -0.13,0.05 z m 0.42,9.27 c -0.04,-0.11 -0.14,-0.19 -0.21,-0.29 -0.1,0.1 -0.29,0.19 -0.29,0.29 0.01,0.8 0.05,1.59 0.09,2.39 0.08,0.02 0.16,0.03 0.23,0.05 0.09,-0.23 0.18,-0.47 0.28,-0.72 0.15,-0.02 0.31,-0.05 0.45,-0.07 -0.19,-0.57 -0.36,-1.11 -0.55,-1.65 z m -8.52,-37.33 c 0.14,0.64 0.83,0.98 1.73,0.88 -0.36,-0.29 -0.73,-0.58 -1.09,-0.86 -0.19,-0.14 -0.38,-0.26 -0.58,-0.39 -0.02,0.12 -0.09,0.25 -0.06,0.37 z m 3.35,5.94 c -0.18,0.04 -0.33,0.14 -0.35,0.26 -0.11,0.61 -0.32,1.25 0.35,1.74 0,-0.66 0,-1.33 0,-2 z m 7.06,24.72 c 0,-0.42 0,-0.84 0,-1.25 -0.35,0.18 -0.35,0.94 0,1.25 z m -10.14,-25.6 c -0.01,-0.22 0.01,-0.45 -0.04,-0.66 -0.04,-0.18 -0.13,-0.39 -0.38,-0.17 0.07,0.28 0.14,0.55 0.21,0.83 0.07,0 0.14,0 0.21,0 z m 9.39,29.94 c 0.03,-0.03 0.1,-0.06 0.1,-0.08 -0.01,-0.05 -0.05,-0.11 -0.09,-0.13 -0.02,-0.01 -0.08,0.04 -0.12,0.06 0.05,0.08 0.08,0.11 0.11,0.15 z m -18.7,-43.85 c 0.04,0.04 0.07,0.08 0.11,0.11 0,-0.07 0,-0.14 -0.01,-0.22 -0.03,0 -0.06,0.01 -0.09,0.01 0,0.04 0,0.07 -0.01,0.1 z m 6.38,1.37 c 0.25,0.09 0.5,0.18 0.74,0.27 0.1,-0.09 0.2,-0.18 0.3,-0.27 -0.27,-0.3 -0.76,-0.3 -1.04,0 z m 2.3,0.52 c 0.24,0.1 0.49,0.21 0.73,0.31 -0.24,-0.1 -0.48,-0.21 -0.73,-0.31 z m -0.98,5.67 c 0.43,-0.47 0.73,-1.04 1.09,-1.58 0.09,-0.14 0.19,-0.4 0.28,-0.4 0.23,0.01 0.46,0.12 0.68,0.21 0.21,0.08 0.41,0.19 0.61,0.29 0,-0.08 0.01,-0.15 0.01,-0.23 -0.23,-0.96 -0.89,-1.57 -1.67,-2.08 -0.14,0.11 -0.28,0.22 -0.42,0.32 v 0 c -0.04,0.32 -0.07,0.63 -0.11,0.95 0.18,0.66 0.14,1.27 -0.3,1.85 -0.29,0.38 -0.59,0.59 -1.06,0.54 0,0.07 0,0.14 0,0.21 0.3,-0.02 0.74,0.08 0.89,-0.08 z m 2.4,-0.64 c -0.06,0.19 -0.11,0.39 -0.16,0.58 0.72,-0.51 1.46,-1 2.14,-1.55 0.53,-0.43 0.74,-1.05 0.71,-1.76 -0.18,0.07 -0.34,0.17 -0.44,0.3 -0.23,0.31 -0.42,0.65 -0.66,0.96 -0.36,0.48 -0.78,0.59 -1.34,0.39 0,0.08 -0.01,0.15 -0.01,0.23 -0.07,0.28 -0.16,0.56 -0.24,0.85 z m -1.23,-3.78 c -0.44,0 -0.88,0 -1.34,0 0.04,0.18 0.07,0.3 0.1,0.42 0.04,0.17 0.07,0.35 0.11,0.52 0.03,0.21 0.07,0.42 0.1,0.64 0.11,0.1 0.21,0.21 0.32,0.31 0.04,-0.32 0.07,-0.63 0.11,-0.95 -0.05,-0.04 -0.11,-0.08 -0.16,-0.13 0.01,-0.01 0.02,-0.02 0.03,-0.03 0.04,0.05 0.08,0.11 0.13,0.16 0.14,-0.11 0.28,-0.22 0.42,-0.32 -0.29,-0.31 0.16,-0.4 0.18,-0.62 z m -1.13,0.94 c -0.11,-0.11 -0.21,-0.22 -0.32,-0.33 -0.34,-0.11 -0.71,-0.18 -1.02,-0.35 -0.32,-0.17 -0.59,-0.28 -0.78,0 -0.51,-0.17 -0.97,-0.31 -1.42,-0.46 0.52,0.65 1.25,0.95 2.03,1.13 0.57,0.14 1.18,0.18 1.62,0.64 -0.04,-0.2 -0.08,-0.41 -0.11,-0.63 z m -0.11,-0.52 c -0.07,0.07 -0.14,0.13 -0.21,0.2 0.11,0.11 0.21,0.22 0.32,0.33 -0.04,-0.18 -0.07,-0.35 -0.11,-0.53 z m 0.63,0.52 c -0.04,-0.05 -0.08,-0.11 -0.13,-0.16 -0.01,0.01 -0.02,0.02 -0.03,0.03 0.06,0.05 0.11,0.09 0.16,0.13 z"
   id="path91"
   style="fill:#2d6c5a" />

</g>
  </g>
</svg>
