<svg width="24" height="20" viewBox="0 0 24 20" fill="none" xmlns="http://www.w3.org/2000/svg">
<path fill-rule="evenodd" clip-rule="evenodd" d="M24 7.36278C24 7.00462 23.842 6.66112 23.5607 6.40786C23.2794 6.1546 22.8978 6.01232 22.5 6.01232H7.038C6.64018 6.01232 6.25864 6.1546 5.97734 6.40786C5.69604 6.66112 5.538 7.00462 5.538 7.36278C5.538 7.72094 5.69604 8.06444 5.97734 8.3177C6.25864 8.57096 6.64018 8.71324 7.038 8.71324H22.5C22.8978 8.71324 23.2794 8.57096 23.5607 8.3177C23.842 8.06444 24 7.72094 24 7.36278ZM24 1.96093C24 1.60277 23.842 1.25928 23.5607 1.00601C23.2794 0.752754 22.8978 0.610474 22.5 0.610474H1.5C1.10217 0.610474 0.720644 0.752754 0.439339 1.00601C0.158033 1.25928 0 1.60277 0 1.96093C0 2.3191 0.158033 2.66259 0.439339 2.91586C0.720644 3.16912 1.10217 3.3114 1.5 3.3114H22.5C22.8978 3.3114 23.2794 3.16912 23.5607 2.91586C23.842 2.66259 24 2.3191 24 1.96093ZM24 12.7646C24 12.4065 23.842 12.063 23.5607 11.8097C23.2794 11.5564 22.8978 11.4142 22.5 11.4142H1.5C1.10217 11.4142 0.720644 11.5564 0.439339 11.8097C0.158033 12.063 0 12.4065 0 12.7646C0 13.1228 0.158033 13.4663 0.439339 13.7195C0.720644 13.9728 1.10217 14.1151 1.5 14.1151H22.5C22.8978 14.1151 23.2794 13.9728 23.5607 13.7195C23.842 13.4663 24 13.1228 24 12.7646ZM24 18.1665C24 17.8083 23.842 17.4648 23.5607 17.2116C23.2794 16.9583 22.8978 16.816 22.5 16.816H7.038C6.64018 16.816 6.25864 16.9583 5.97734 17.2116C5.69604 17.4648 5.538 17.8083 5.538 18.1665C5.538 18.5246 5.69604 18.8681 5.97734 19.1214C6.25864 19.3747 6.64018 19.5169 7.038 19.5169H22.5C22.8978 19.5169 23.2794 19.3747 23.5607 19.1214C23.842 18.8681 24 18.5246 24 18.1665Z" fill="black"/>
</svg>
