<?xml version="1.0" encoding="UTF-8" standalone="no"?>
<!-- Created with Inkscape (http://www.inkscape.org/) -->

<svg
   width="84.359795mm"
   height="16.881645mm"
   viewBox="0 0 84.359798 16.881645"
   version="1.1"
   id="svg1"
   inkscape:version="1.3.1 (9b9bdc1480, 2023-11-25, custom)"
   sodipodi:docname="samagokhnoir.svg"
   xmlns:inkscape="http://www.inkscape.org/namespaces/inkscape"
   xmlns:sodipodi="http://sodipodi.sourceforge.net/DTD/sodipodi-0.dtd"
   xmlns="http://www.w3.org/2000/svg"
   xmlns:svg="http://www.w3.org/2000/svg">
  <sodipodi:namedview
     id="namedview1"
     pagecolor="#ffffff"
     bordercolor="#000000"
     borderopacity="0.25"
     inkscape:showpageshadow="2"
     inkscape:pageopacity="0.0"
     inkscape:pagecheckerboard="0"
     inkscape:deskcolor="#d1d1d1"
     inkscape:document-units="mm"
     inkscape:zoom="0.72248176"
     inkscape:cx="256.06183"
     inkscape:cy="198.62093"
     inkscape:window-width="1850"
     inkscape:window-height="1011"
     inkscape:window-x="0"
     inkscape:window-y="0"
     inkscape:window-maximized="1"
     inkscape:current-layer="layer1" />
  <defs
     id="defs1" />
  <g
     inkscape:label="Calque 1"
     inkscape:groupmode="layer"
     id="layer1"
     transform="translate(-38.195033,-123.40858)">
    <g
       id="g65"
       transform="matrix(0.26458333,0,0,0.26458333,-30.355646,113.34221)">
	<path
   class="st10"
   d="m 439.92,67.82 c -0.07,-0.01 -10.7,3.44 -10.96,3.62 -0.25,0.18 -0.41,0.32 -0.43,0.39 -0.06,0.07 -0.17,0.17 -0.35,0.24 -0.34,0.12 -0.64,-0.01 -0.71,-0.04 -0.35,-0.27 -0.71,-0.55 -1.09,-0.83 -0.53,-0.38 -1.05,-0.74 -1.56,-1.07 -0.31,-0.2 -0.65,-0.32 -1.01,-0.38 -0.66,-0.1 -1.49,-0.16 -2.42,-0.08 -0.8,0.07 -1.5,0.22 -2.08,0.38 -0.34,0.1 -0.6,0.37 -0.69,0.71 -0.06,0.23 -0.14,0.48 -0.24,0.74 -0.17,0.42 -0.36,0.78 -0.54,1.08 -0.14,0.24 -0.17,0.54 -0.04,0.78 0.02,0.03 0.04,0.06 0.06,0.09 0.24,0.31 0.71,0.42 1.15,0.24 0.24,-0.08 0.61,-0.23 0.98,-0.53 0.26,-0.21 0.45,-0.39 0.58,-0.58 0.09,-0.13 0.23,-0.21 0.38,-0.23 0.37,-0.05 0.74,-0.09 1.11,-0.14 0.14,-0.02 0.27,0.02 0.38,0.09 1.16,0.82 2.36,1.78 3.63,2.87 1.39,1.19 2.81,2.27 3.87,3.39 0.28,0.29 0.2,0.79 0,1.14 -0.02,0.03 -0.04,0.07 -0.07,0.1 -0.03,0.04 -0.06,0.07 -0.09,0.1 -0.34,0.35 -0.95,0.47 -1.35,0.19 -0.24,-0.17 -0.5,-0.21 -0.74,-0.38 -1.56,-0.84 -2.51,-1.99 -3.6,-2.78"
   id="path58"
   style="fill:none;stroke:#010202;stroke-width:1.3;stroke-miterlimit:10" />

	<path
   class="st10"
   d="m 427.8,79.73 c 0.05,0.29 0.12,1.02 -0.3,1.48 -0.35,0.38 -0.99,0.54 -1.73,0.39 -0.03,-0.01 -0.07,-0.01 -0.1,-0.02 -0.52,-0.12 -1.07,-0.4 -1.6,-0.84 v 0 c -0.52,-0.51 -1.05,-1.02 -1.57,-1.53"
   id="path59"
   style="fill:none;stroke:#010202;stroke-width:1.3;stroke-miterlimit:10" />

	<path
   class="st10"
   d="m 425.74,81.69 c -0.11,0.16 -0.37,0.53 -0.87,0.77 -0.57,0.28 -1.1,0.21 -1.29,0.18 -0.45,-0.22 -0.97,-0.52 -1.51,-0.93 -0.62,-0.46 -1.1,-0.94 -1.47,-1.35"
   id="path60"
   style="fill:none;stroke:#010202;stroke-width:1.3;stroke-miterlimit:10" />

	<path
   class="st10"
   d="m 415.61,77.85 c 0,0 -0.73,-1.99 -1.82,-1.16 -1.09,0.83 0.14,2.75 1.02,2.04 0,0 -0.2,2.23 1.66,1.63 0,0 -0.03,1.93 1.62,1.36 0,0 0.35,2.28 2.32,0.91 0.27,-0.19 0.64,0.29 1.03,0.42 0.42,0.14 0.82,0.24 1.17,0.31 0.1,0 0.35,-0.02 0.61,-0.19 0.25,-0.17 0.36,-0.4 0.4,-0.49"
   id="path61"
   style="fill:none;stroke:#010202;stroke-width:1.3;stroke-miterlimit:10" />

	<path
   class="st10"
   d="m 414.82,78.73 c 0,0 1.72,-2.41 2.71,-1.12 0.99,1.29 0.16,1.58 -1.05,2.75"
   id="path62"
   style="fill:none;stroke:#010202;stroke-width:1.3;stroke-miterlimit:10" />

	<path
   class="st10"
   d="m 420.41,82.63 c 0,0 -0.13,-0.53 -0.13,-1.23 -0.01,-0.7 -0.69,-0.95 -0.91,-0.85 -0.22,0.11 1.1,-2.54 -1.47,-1.67"
   id="path63"
   style="fill:none;stroke:#010202;stroke-width:1.3;stroke-miterlimit:10" />

	<line
   class="st10"
   x1="418.09"
   y1="81.720001"
   x2="419.37"
   y2="80.550003"
   id="line63"
   style="fill:none;stroke:#010202;stroke-width:1.3;stroke-miterlimit:10" />

	<path
   class="st10"
   d="m 413.87,76.64 c 0,0 -3.07,-1.26 -3.24,-1.18 -0.17,0.07 -1.23,2.26 -1.78,2.27 -0.55,0.01 -1.92,-0.19 -1.99,-0.49 -0.07,-0.3 -0.68,2.19 -1.49,2.5 l -7.22,-2.87"
   id="path64"
   style="fill:none;stroke:#010202;stroke-width:1.3;stroke-miterlimit:10" />

	<path
   class="st10"
   d="m 427.1,76.11 c 0,0 0.69,0.08 1.35,-0.47"
   id="path65"
   style="fill:none;stroke:#010202;stroke-width:1.3;stroke-miterlimit:10" />

</g>
    <g
       id="g73"
       transform="matrix(0.26458333,0,0,0.26458333,-30.355646,113.34221)">
		<path
   class="st11"
   d="m 295.1,57.49 c -1.27,1.39 -3.27,1.72 -5,0.97 -0.17,-0.07 -0.34,-0.14 -0.52,-0.2 -1.24,-0.44 -2.42,-0.66 -3.53,-0.66 -0.65,0 -1.32,0.08 -2.01,0.23 -0.69,0.15 -1.34,0.39 -1.95,0.72 -0.61,0.33 -1.11,0.76 -1.49,1.29 -0.38,0.54 -0.57,1.19 -0.57,1.95 0,1.22 0.46,2.16 1.38,2.81 0.92,0.65 2.07,1.2 3.47,1.66 1.4,0.46 2.9,0.92 4.5,1.38 1.61,0.46 3.11,1.11 4.5,1.95 1.4,0.84 2.55,1.97 3.47,3.38 0.92,1.42 1.38,3.31 1.38,5.68 0,2.26 -0.42,4.23 -1.26,5.91 -0.84,1.68 -1.98,3.08 -3.41,4.19 -1.43,1.11 -3.1,1.93 -4.99,2.47 -1.89,0.54 -3.89,0.8 -5.99,0.8 -2.64,0 -5.09,-0.4 -7.34,-1.2 l -0.07,-0.02 c -3.51,-1.26 -4.61,-5.67 -2.1,-8.43 v 0 c 1.1,-1.21 2.92,-1.41 4.25,-0.46 0.45,0.32 0.93,0.61 1.44,0.85 1.4,0.67 2.84,1 4.33,1 0.73,0 1.46,-0.09 2.21,-0.26 0.75,-0.17 1.41,-0.43 2.01,-0.77 0.59,-0.34 1.07,-0.78 1.43,-1.32 0.36,-0.54 0.55,-1.17 0.55,-1.89 0,-1.22 -0.47,-2.19 -1.41,-2.9 -0.94,-0.71 -2.11,-1.31 -3.53,-1.81 -1.42,-0.5 -2.95,-0.99 -4.59,-1.49 -1.64,-0.5 -3.17,-1.17 -4.59,-2.01 -1.42,-0.84 -2.59,-1.95 -3.53,-3.33 -0.94,-1.38 -1.41,-3.19 -1.41,-5.45 0,-2.18 0.43,-4.09 1.29,-5.74 0.86,-1.64 2.01,-3.02 3.44,-4.13 1.43,-1.11 3.09,-1.94 4.96,-2.5 1.87,-0.55 3.8,-0.83 5.79,-0.83 2.29,0 4.51,0.33 6.65,0.98 0.16,0.05 0.33,0.1 0.49,0.16 2.93,1 3.89,4.66 1.8,6.94 z"
   id="path66"
   style="fill:#010202" />

		<path
   class="st11"
   d="m 321.79,87.49 h -0.11 c -0.96,1.49 -2.23,2.56 -3.81,3.21 -1.59,0.65 -3.26,0.98 -5.02,0.98 -1.3,0 -2.55,-0.18 -3.76,-0.55 -1.2,-0.36 -2.27,-0.91 -3.18,-1.63 -0.92,-0.73 -1.64,-1.63 -2.18,-2.7 -0.54,-1.07 -0.8,-2.31 -0.8,-3.73 0,-1.61 0.3,-2.96 0.89,-4.07 0.59,-1.11 1.4,-2.03 2.41,-2.75 1.01,-0.73 2.17,-1.29 3.47,-1.69 1.3,-0.4 2.65,-0.7 4.04,-0.89 1.4,-0.19 2.79,-0.31 4.19,-0.34 1.4,-0.04 2.69,-0.06 3.87,-0.06 0,-1.53 -0.55,-2.74 -1.64,-3.64 -1.09,-0.9 -2.38,-1.35 -3.87,-1.35 -1.42,0 -2.71,0.3 -3.87,0.89 -0.39,0.2 -0.76,0.42 -1.13,0.67 -1.28,0.87 -2.98,0.77 -4.06,-0.34 l -0.01,-0.01 c -1.43,-1.46 -1.1,-3.92 0.7,-4.89 0.76,-0.41 1.56,-0.76 2.4,-1.05 2.14,-0.75 4.36,-1.12 6.65,-1.12 2.52,0 4.6,0.32 6.22,0.95 1.63,0.63 2.93,1.56 3.9,2.78 0.98,1.22 1.65,2.72 2.04,4.5 0.38,1.78 0.57,3.83 0.57,6.17 V 87.5 c 0,1.93 -1.57,3.5 -3.5,3.5 h -0.92 c -1.92,-0.01 -3.49,-1.58 -3.49,-3.51 z m -2.12,-8.72 c -0.65,0 -1.46,0.03 -2.44,0.09 -0.98,0.06 -1.91,0.22 -2.81,0.49 -0.9,0.27 -1.66,0.67 -2.29,1.2 -0.63,0.54 -0.95,1.28 -0.95,2.24 0,1.03 0.44,1.8 1.32,2.29 0.88,0.5 1.8,0.75 2.75,0.75 0.84,0 1.65,-0.11 2.44,-0.34 0.78,-0.23 1.48,-0.55 2.09,-0.97 0.61,-0.42 1.1,-0.96 1.46,-1.61 0.36,-0.65 0.55,-1.41 0.55,-2.29 v -1.84 h -2.12 z"
   id="path67"
   style="fill:#010202" />

		<path
   class="st11"
   d="m 338.89,63.11 h 0.69 c 2.09,0 3.79,1.7 3.79,3.79 v 0 h 0.11 c 0.27,-0.54 0.65,-1.07 1.15,-1.61 0.5,-0.54 1.09,-1.01 1.78,-1.43 0.69,-0.42 1.47,-0.76 2.35,-1.03 0.88,-0.27 1.84,-0.4 2.87,-0.4 1.95,0 3.68,0.4 5.19,1.2 1.51,0.8 2.65,2.07 3.41,3.79 0.99,-1.8 2.2,-3.08 3.61,-3.84 1.41,-0.76 3.16,-1.15 5.22,-1.15 1.87,0 3.45,0.32 4.73,0.95 1.28,0.63 2.29,1.49 3.04,2.58 0.75,1.09 1.28,2.37 1.61,3.84 0.32,1.47 0.49,3.05 0.49,4.73 v 12.16 c 0,2.38 -1.93,4.3 -4.3,4.3 v 0 c -2.38,0 -4.3,-1.93 -4.3,-4.3 V 74.75 c 0,-1.3 -0.28,-2.42 -0.83,-3.36 -0.55,-0.94 -1.54,-1.41 -2.95,-1.41 -0.99,0 -1.83,0.16 -2.5,0.49 -0.67,0.33 -1.2,0.77 -1.61,1.35 -0.4,0.57 -0.69,1.24 -0.86,2.01 -0.17,0.77 -0.26,1.57 -0.26,2.41 v 10.44 c 0,2.38 -1.93,4.3 -4.3,4.3 v 0 c -2.38,0 -4.3,-1.93 -4.3,-4.3 V 76.25 c 0,-0.5 -0.02,-1.11 -0.06,-1.84 -0.04,-0.73 -0.17,-1.41 -0.4,-2.07 -0.23,-0.65 -0.6,-1.2 -1.12,-1.66 -0.52,-0.46 -1.27,-0.69 -2.27,-0.69 -1.11,0 -2.01,0.2 -2.7,0.6 -0.69,0.4 -1.21,0.94 -1.58,1.61 -0.36,0.67 -0.6,1.43 -0.72,2.27 -0.11,0.84 -0.17,1.72 -0.17,2.64 v 9.58 c 0,2.38 -1.93,4.3 -4.3,4.3 v 0 c -2.38,0 -4.3,-1.93 -4.3,-4.3 V 66.9 c 0,-2.1 1.7,-3.79 3.79,-3.79 z"
   id="path68"
   style="fill:#010202" />

		<path
   class="st11"
   d="m 402.5,87.49 h -0.11 c -0.96,1.49 -2.23,2.56 -3.81,3.21 -1.59,0.65 -3.26,0.98 -5.02,0.98 -1.3,0 -2.55,-0.18 -3.76,-0.55 -1.2,-0.36 -2.27,-0.91 -3.18,-1.63 -0.92,-0.73 -1.64,-1.63 -2.18,-2.7 -0.54,-1.07 -0.8,-2.31 -0.8,-3.73 0,-1.61 0.3,-2.96 0.89,-4.07 0.59,-1.11 1.4,-2.03 2.41,-2.75 1.01,-0.73 2.17,-1.29 3.47,-1.69 1.3,-0.4 2.65,-0.7 4.04,-0.89 1.4,-0.19 2.79,-0.31 4.19,-0.34 1.4,-0.04 2.69,-0.06 3.87,-0.06 0,-1.53 -0.55,-2.74 -1.64,-3.64 -1.09,-0.9 -2.38,-1.35 -3.87,-1.35 -1.42,0 -2.71,0.3 -3.87,0.89 -0.39,0.2 -0.76,0.42 -1.13,0.67 -1.28,0.87 -2.98,0.77 -4.06,-0.34 l -0.01,-0.01 c -1.43,-1.46 -1.1,-3.92 0.7,-4.89 0.76,-0.41 1.56,-0.76 2.4,-1.05 2.14,-0.75 4.36,-1.12 6.65,-1.12 2.52,0 4.6,0.32 6.22,0.95 1.63,0.63 2.93,1.56 3.9,2.78 0.97,1.22 1.65,2.72 2.04,4.5 0.38,1.78 0.57,3.83 0.57,6.17 V 87.5 c 0,1.93 -1.57,3.5 -3.5,3.5 H 406 c -1.93,-0.01 -3.5,-1.58 -3.5,-3.51 z m -2.12,-8.72 c -0.65,0 -1.46,0.03 -2.44,0.09 -0.98,0.06 -1.91,0.22 -2.81,0.49 -0.9,0.27 -1.66,0.67 -2.29,1.2 -0.63,0.54 -0.95,1.28 -0.95,2.24 0,1.03 0.44,1.8 1.32,2.29 0.88,0.5 1.8,0.75 2.75,0.75 0.84,0 1.65,-0.11 2.44,-0.34 0.78,-0.23 1.48,-0.55 2.09,-0.97 0.61,-0.42 1.1,-0.96 1.46,-1.61 0.36,-0.65 0.55,-1.41 0.55,-2.29 v -1.84 h -2.12 z"
   id="path69"
   style="fill:#010202" />

		<path
   class="st11"
   d="m 470.65,80.8 c 0,4.91 -3.37,9.24 -8.17,10.28 -0.03,0.01 -0.06,0.01 -0.09,0.02 -2.87,0.61 -5.79,0.92 -8.78,0.92 -3.17,0 -6.1,-0.5 -8.78,-1.49 -2.68,-0.99 -4.99,-2.42 -6.94,-4.27 -1.95,-1.85 -3.47,-4.1 -4.56,-6.74 -1.09,-2.64 -1.63,-5.58 -1.63,-8.83 0,-3.25 0.54,-6.2 1.63,-8.83 1.09,-2.64 2.61,-4.88 4.56,-6.74 1.95,-1.85 4.26,-3.28 6.94,-4.27 2.68,-0.99 5.6,-1.49 8.78,-1.49 3.25,0 6.24,0.39 8.98,1.18 0.72,0.21 1.41,0.45 2.09,0.74 2.86,1.21 3.68,4.87 1.58,7.16 v 0 c -1.45,1.58 -3.78,1.86 -5.63,0.79 -0.41,-0.24 -0.84,-0.45 -1.27,-0.63 -1.53,-0.65 -3.44,-0.98 -5.74,-0.98 -1.91,0 -3.64,0.33 -5.19,0.98 -1.55,0.65 -2.88,1.56 -3.99,2.72 -1.11,1.17 -1.96,2.55 -2.55,4.16 -0.59,1.61 -0.89,3.35 -0.89,5.22 0,1.91 0.3,3.66 0.89,5.25 0.59,1.59 1.44,2.96 2.55,4.13 1.11,1.17 2.44,2.07 3.99,2.72 1.55,0.65 3.28,0.98 5.19,0.98 1.95,0 3.63,-0.22 5.05,-0.66 0.01,0 0.03,-0.01 0.04,-0.01 2,-0.62 3.34,-2.5 3.34,-4.59 v -1.48 c 0,-1.03 -0.83,-1.86 -1.86,-1.86 h -1.3 c -2.28,0 -4.13,-1.85 -4.13,-4.13 v 0 c 0,-2.28 1.85,-4.13 4.13,-4.13 h 4.33 c 4.11,0 7.43,3.33 7.43,7.43 z"
   id="path70"
   style="fill:#010202" />

		<path
   class="st11"
   d="m 476.39,77.05 c 0,-2.22 0.4,-4.23 1.2,-6.02 0.8,-1.8 1.9,-3.34 3.3,-4.62 1.4,-1.28 3.04,-2.27 4.93,-2.95 1.89,-0.69 3.91,-1.03 6.05,-1.03 2.14,0 4.16,0.34 6.05,1.03 1.89,0.69 3.54,1.67 4.93,2.95 1.4,1.28 2.5,2.82 3.3,4.62 0.8,1.8 1.2,3.81 1.2,6.02 0,2.22 -0.4,4.23 -1.2,6.02 -0.8,1.8 -1.9,3.34 -3.3,4.62 -1.4,1.28 -3.04,2.27 -4.93,2.95 -1.89,0.69 -3.91,1.03 -6.05,1.03 -2.14,0 -4.16,-0.34 -6.05,-1.03 -1.89,-0.69 -3.54,-1.67 -4.93,-2.95 -1.4,-1.28 -2.5,-2.82 -3.3,-4.62 -0.8,-1.8 -1.2,-3.8 -1.2,-6.02 z m 8.6,0 c 0,2.1 0.6,3.81 1.81,5.11 1.2,1.3 2.9,1.95 5.08,1.95 2.18,0 3.87,-0.65 5.08,-1.95 1.2,-1.3 1.81,-3 1.81,-5.11 0,-2.1 -0.6,-3.8 -1.81,-5.11 -1.2,-1.3 -2.9,-1.95 -5.08,-1.95 -2.18,0 -3.87,0.65 -5.08,1.95 -1.21,1.3 -1.81,3.01 -1.81,5.11 z"
   id="path71"
   style="fill:#010202" />

		<path
   class="st11"
   d="m 516.71,47.62 v 0 c 2.38,0 4.3,1.93 4.3,4.3 v 22.2 l 8.34,-9.65 c 0.75,-0.87 1.84,-1.37 2.99,-1.37 v 0 c 3.4,0 5.21,4.01 2.96,6.56 l -5.29,6 6.27,8.46 c 2.1,2.84 0.08,6.86 -3.45,6.86 v 0 c -1.44,0 -2.78,-0.72 -3.58,-1.91 l -8.13,-12.2 h -0.11 v 9.81 c 0,2.37 -1.92,4.3 -4.3,4.3 h -0.01 c -2.37,0 -4.3,-1.92 -4.3,-4.3 V 51.92 c 0.01,-2.37 1.93,-4.3 4.31,-4.3 z"
   id="path72"
   style="fill:#010202" />

		<path
   class="st11"
   d="m 548.6,47.62 c 2.38,0 4.3,1.93 4.3,4.3 V 66.9 h 0.11 c 0.19,-0.54 0.52,-1.07 0.97,-1.61 0.46,-0.54 1.01,-1.01 1.66,-1.43 0.65,-0.42 1.41,-0.76 2.29,-1.03 0.88,-0.27 1.84,-0.4 2.87,-0.4 2.18,0 3.94,0.34 5.28,1 1.34,0.67 2.38,1.6 3.13,2.78 0.75,1.19 1.25,2.58 1.52,4.19 0.27,1.61 0.4,3.35 0.4,5.22 v 11.07 c 0,2.37 -1.92,4.3 -4.3,4.3 h -0.01 c -2.37,0 -4.3,-1.92 -4.3,-4.3 v -9.35 c 0,-0.8 -0.03,-1.64 -0.09,-2.5 -0.06,-0.86 -0.23,-1.65 -0.52,-2.38 -0.29,-0.73 -0.73,-1.32 -1.32,-1.78 -0.59,-0.46 -1.44,-0.69 -2.55,-0.69 -1.11,0 -2.01,0.2 -2.7,0.6 -0.69,0.4 -1.21,0.94 -1.58,1.61 -0.36,0.67 -0.6,1.43 -0.72,2.27 -0.11,0.84 -0.17,1.72 -0.17,2.64 v 9.58 c 0,2.37 -1.92,4.3 -4.3,4.3 h -0.01 c -2.37,0 -4.3,-1.92 -4.3,-4.3 V 51.92 c 0.04,-2.37 1.97,-4.3 4.34,-4.3 z"
   id="path73"
   style="fill:#010202" />

	</g>
  </g>
</svg>
